<svg width="38" height="38" viewBox="0 0 38 38" fill="none" xmlns="http://www.w3.org/2000/svg">
<g id="3200458_centre_drawn_support_hand_customer_icon 1">
<g id="Group">
<g id="Vector">
<path fill-rule="evenodd" clip-rule="evenodd" d="M2.3071 36.2673C2.36989 34.1954 4.96272 30.8081 7.21117 30.5114C9.43239 30.2243 11.0691 29.0274 12.3771 27.8954C12.697 27.6185 12.9854 27.4848 13.2581 27.4848C13.5821 27.4848 13.8686 27.6704 14.1339 28.0536C14.8404 29.0738 15.7768 29.8916 16.6824 30.6833C17.1537 31.0953 17.6413 31.5207 18.0907 31.9702C18.2605 32.1365 18.4003 32.2137 18.5309 32.2137C18.6554 32.2137 18.7822 32.1413 18.9183 31.992C19.3862 31.4764 19.944 31.0503 20.4838 30.6383C20.807 30.3914 21.1303 30.1446 21.4376 29.8772C22.9666 28.5501 23.6011 27.0546 23.3774 25.304C23.3706 25.248 23.3706 25.186 23.3706 25.1232C23.371 25.0011 23.371 24.8742 23.312 24.8156C23.2809 24.7842 23.2315 24.7692 23.1606 24.7692C23.1306 24.7692 23.0972 24.7719 23.06 24.7774C22.9421 24.7965 22.8264 24.8094 22.7176 24.8094C22.3401 24.8094 22.1025 24.645 21.9913 24.3069C21.8048 23.7217 22.2178 23.4094 22.5822 23.1345L22.6535 23.0807C24.1423 21.9581 25.2897 20.4796 26.1612 18.5616C26.7389 17.2907 26.7978 16.0171 26.3361 14.7756C25.6006 12.7638 24.6963 11.422 23.3593 10.3905C23.1401 10.2193 23.0077 10.1161 22.888 10.1161C22.7806 10.1161 22.6555 10.1993 22.4413 10.4134C19.514 13.3183 16.7896 15.1613 13.8673 16.2133C13.1785 16.4622 12.9643 16.8329 13.1041 17.5356L13.1942 18.0161C13.5256 19.7977 13.8393 21.4809 15.2844 22.7425C15.4856 22.9172 15.6022 23.1353 15.6124 23.359C15.622 23.5595 15.5422 23.7532 15.3833 23.9176C15.2319 24.0744 15.0566 24.1542 14.8622 24.1542C14.6549 24.1542 14.4326 24.0641 14.1987 23.8868C13.3851 23.2703 12.7911 22.4717 12.4331 21.5135C11.9161 20.1393 11.6092 18.8446 11.4946 17.5546C11.4524 17.0448 11.3958 16.7216 10.9613 16.5269C10.5869 16.3614 10.4308 16.0259 10.544 15.6287C10.6394 15.302 10.8979 15.1137 11.2709 15.0984C13.13 15.0155 14.6986 14.2327 16.4826 13.0832C19.6299 11.0567 21.9742 9.07596 23.1857 5.99439C23.3808 5.48807 23.6419 5.24219 23.9846 5.24219C24.0968 5.24219 24.2182 5.2698 24.3454 5.32435C24.5708 5.4218 24.7225 5.56816 24.7958 5.75905C24.8869 5.9967 24.8527 6.30225 24.6969 6.64218C24.4667 7.14449 24.2024 7.63752 23.9225 8.15987C23.7912 8.40472 23.6558 8.65707 23.5178 8.92203C23.9419 9.03083 24.3812 9.17949 24.7647 9.48127C26.7295 11.013 27.8473 13.1223 28.1818 15.9307C28.4829 18.4352 27.2151 20.4637 25.8 22.2825C24.9301 23.4023 24.9956 24.6721 25.059 25.8996C25.0921 26.5367 25.1259 27.1961 25.0304 27.8338C25.0246 27.8652 25.1061 27.9483 25.1552 27.9982C25.1971 28.0411 25.2394 28.0847 25.2708 28.127C26.1355 29.3041 27.1752 30.4089 28.9119 30.5235C29.3528 30.5494 29.7903 30.6803 30.2134 30.8071C30.5214 30.8999 30.8398 30.9954 31.1542 31.0486C33.1602 31.3773 34.5 32.5632 35.2498 34.6739C35.2928 34.7947 35.3497 34.9249 35.4087 35.0586C35.5946 35.4821 35.8049 35.9616 35.6484 36.3367C35.5682 36.529 35.3971 36.6776 35.1393 36.7759C35.0125 36.8249 34.8938 36.8488 34.7868 36.8488C34.2385 36.8488 34.0656 36.2535 33.9129 35.7283C33.8699 35.581 33.8286 35.4377 33.7805 35.3164C33.1865 33.8078 32.2116 32.9315 30.8003 32.6375C30.06 32.4834 29.3246 32.3034 28.5894 32.1247C28.1518 32.0183 27.7144 31.912 27.2759 31.8097C27.1204 31.7741 26.9806 31.7565 26.8486 31.7565C26.4681 31.7565 26.1561 31.9051 25.8663 32.2243C25.1417 33.0276 24.383 33.8187 23.6496 34.5853C23.2571 34.9945 22.8643 35.4044 22.4745 35.8183C21.98 36.3441 21.607 36.5684 21.2268 36.5684C20.8619 36.5684 20.478 36.3536 19.9822 35.8701L19.8414 35.733C19.2869 35.1895 18.9815 34.8901 18.739 34.8901C18.4791 34.8901 18.2189 35.2413 17.7007 35.9425L17.6065 36.0693C17.4838 36.2411 17.3385 36.4348 17.1565 36.5774C16.9655 36.7227 16.7405 36.8065 16.5386 36.8065C16.334 36.8065 16.169 36.724 16.0585 36.5671C15.6343 35.9451 15.0546 35.4453 14.4926 34.9618C13.7943 34.3603 13.0714 33.7383 12.65 32.8776C12.1746 31.9045 11.5411 31.4509 10.6579 31.4509C10.3476 31.4509 10.008 31.5069 9.62061 31.6201C9.40508 31.6848 9.17864 31.723 8.96593 31.7545C6.23186 32.1152 4.59311 33.681 3.95475 36.5426C3.8579 36.9872 3.67792 37.496 3.13701 37.496C3.08313 37.496 3.02591 37.4913 2.96453 37.4803C2.27986 37.3557 2.2976 36.6744 2.3071 36.2673ZM12.6868 29.9495L12.7481 30.079C12.7863 30.1616 12.8245 30.2448 12.8743 30.3239C13.7881 31.8515 14.8922 33.1541 16.1539 34.1954C16.3264 34.3366 16.4621 34.4028 16.5822 34.4028C16.7084 34.4028 16.8324 34.3291 16.9736 34.1709C17.2689 33.8367 17.4367 33.5912 17.084 33.2447C16.6026 32.7776 16.083 32.3329 15.5796 31.9026C14.8049 31.2398 14.0042 30.5551 13.3169 29.768C13.2337 29.6732 13.149 29.6248 13.0652 29.6248C12.9233 29.6248 12.7829 29.7681 12.6868 29.9495ZM21.6257 34.3332C21.667 34.2813 21.7076 34.2308 21.7481 34.1879C22.1654 33.7549 22.576 33.3122 22.9866 32.8697C23.5461 32.2668 24.106 31.6632 24.685 31.0802C24.8948 30.8708 24.9957 30.6792 24.9929 30.495C24.9889 30.2133 24.7433 29.9808 24.5057 29.7572L24.3823 29.6385C24.2561 29.5123 24.1453 29.4483 24.0529 29.4483C23.8878 29.4483 23.7702 29.6644 23.6662 29.8554C23.624 29.9331 23.583 30.0074 23.5411 30.0661C23.0333 30.7692 22.3497 31.2841 21.6888 31.7819C21.2565 32.1072 20.8094 32.4441 20.4203 32.8281L20.3041 32.9351C20.1319 33.0913 19.9689 33.2386 19.9273 33.4438C20.1745 33.8816 20.5408 34.252 21.0481 34.5759C21.1123 34.6182 21.1713 34.6387 21.2275 34.6387C21.3792 34.6387 21.5047 34.4833 21.6257 34.3332Z" fill="white"/>
<path fill-rule="evenodd" clip-rule="evenodd" d="M2.3071 36.2673C2.36989 34.1954 4.96272 30.8081 7.21117 30.5114C9.43239 30.2243 11.0691 29.0274 12.3771 27.8954C12.697 27.6185 12.9854 27.4848 13.2581 27.4848C13.5821 27.4848 13.8686 27.6704 14.1339 28.0536C14.8404 29.0738 15.7768 29.8916 16.6824 30.6833C17.1537 31.0953 17.6413 31.5207 18.0907 31.9702C18.2605 32.1365 18.4003 32.2137 18.5309 32.2137C18.6554 32.2137 18.7822 32.1413 18.9183 31.992C19.3862 31.4764 19.944 31.0503 20.4838 30.6383C20.807 30.3914 21.1303 30.1446 21.4376 29.8772C22.9666 28.5501 23.6011 27.0546 23.3774 25.304C23.3706 25.248 23.3706 25.186 23.3706 25.1232C23.371 25.0011 23.371 24.8742 23.312 24.8156C23.2809 24.7842 23.2315 24.7692 23.1606 24.7692C23.1306 24.7692 23.0972 24.7719 23.06 24.7774C22.9421 24.7965 22.8264 24.8094 22.7176 24.8094C22.3401 24.8094 22.1025 24.645 21.9913 24.3069C21.8048 23.7217 22.2178 23.4094 22.5822 23.1345L22.6535 23.0807C24.1423 21.9581 25.2897 20.4796 26.1612 18.5616C26.7389 17.2907 26.7978 16.0171 26.3361 14.7756C25.6006 12.7638 24.6963 11.422 23.3593 10.3905C23.1401 10.2193 23.0077 10.1161 22.888 10.1161C22.7806 10.1161 22.6555 10.1993 22.4413 10.4134C19.514 13.3183 16.7896 15.1613 13.8673 16.2133C13.1785 16.4622 12.9643 16.8329 13.1041 17.5356L13.1942 18.0161C13.5256 19.7977 13.8393 21.4809 15.2844 22.7425C15.4856 22.9172 15.6022 23.1353 15.6124 23.359C15.622 23.5595 15.5422 23.7532 15.3833 23.9176C15.2319 24.0744 15.0566 24.1542 14.8622 24.1542C14.6549 24.1542 14.4326 24.0641 14.1987 23.8868C13.3851 23.2703 12.7911 22.4717 12.4331 21.5135C11.9161 20.1393 11.6092 18.8446 11.4946 17.5546C11.4524 17.0448 11.3958 16.7216 10.9613 16.5269C10.5869 16.3614 10.4308 16.0259 10.544 15.6287C10.6394 15.302 10.8979 15.1137 11.2709 15.0984C13.13 15.0155 14.6986 14.2327 16.4826 13.0832C19.6299 11.0567 21.9742 9.07596 23.1857 5.99439C23.3808 5.48807 23.6419 5.24219 23.9846 5.24219C24.0968 5.24219 24.2182 5.2698 24.3454 5.32435C24.5708 5.4218 24.7225 5.56816 24.7958 5.75905C24.8869 5.9967 24.8527 6.30225 24.6969 6.64218C24.4667 7.14449 24.2024 7.63752 23.9225 8.15987C23.7912 8.40472 23.6558 8.65707 23.5178 8.92203C23.9419 9.03083 24.3812 9.17949 24.7647 9.48127C26.7295 11.013 27.8473 13.1223 28.1818 15.9307C28.4829 18.4352 27.2151 20.4637 25.8 22.2825C24.9301 23.4023 24.9956 24.6721 25.059 25.8996C25.0921 26.5367 25.1259 27.1961 25.0304 27.8338C25.0246 27.8652 25.1061 27.9483 25.1552 27.9982C25.1971 28.0411 25.2394 28.0847 25.2708 28.127C26.1355 29.3041 27.1752 30.4089 28.9119 30.5235C29.3528 30.5494 29.7903 30.6803 30.2134 30.8071C30.5214 30.8999 30.8398 30.9954 31.1542 31.0486C33.1602 31.3773 34.5 32.5632 35.2498 34.6739C35.2928 34.7947 35.3497 34.9249 35.4087 35.0586C35.5946 35.4821 35.8049 35.9616 35.6484 36.3367C35.5682 36.529 35.3971 36.6776 35.1393 36.7759C35.0125 36.8249 34.8938 36.8488 34.7868 36.8488C34.2385 36.8488 34.0656 36.2535 33.9129 35.7283C33.8699 35.581 33.8286 35.4377 33.7805 35.3164C33.1865 33.8078 32.2116 32.9315 30.8003 32.6375C30.06 32.4834 29.3246 32.3034 28.5894 32.1247C28.1518 32.0183 27.7144 31.912 27.2759 31.8097C27.1204 31.7741 26.9806 31.7565 26.8486 31.7565C26.4681 31.7565 26.1561 31.9051 25.8663 32.2243C25.1417 33.0276 24.383 33.8187 23.6496 34.5853C23.2571 34.9945 22.8643 35.4044 22.4745 35.8183C21.98 36.3441 21.607 36.5684 21.2268 36.5684C20.8619 36.5684 20.478 36.3536 19.9822 35.8701L19.8414 35.733C19.2869 35.1895 18.9815 34.8901 18.739 34.8901C18.4791 34.8901 18.2189 35.2413 17.7007 35.9425L17.6065 36.0693C17.4838 36.2411 17.3385 36.4348 17.1565 36.5774C16.9655 36.7227 16.7405 36.8065 16.5386 36.8065C16.334 36.8065 16.169 36.724 16.0585 36.5671C15.6343 35.9451 15.0546 35.4453 14.4926 34.9618C13.7943 34.3603 13.0714 33.7383 12.65 32.8776C12.1746 31.9045 11.5411 31.4509 10.6579 31.4509C10.3476 31.4509 10.008 31.5069 9.62061 31.6201C9.40508 31.6848 9.17864 31.723 8.96593 31.7545C6.23186 32.1152 4.59311 33.681 3.95475 36.5426C3.8579 36.9872 3.67792 37.496 3.13701 37.496C3.08313 37.496 3.02591 37.4913 2.96453 37.4803C2.27986 37.3557 2.2976 36.6744 2.3071 36.2673ZM12.6868 29.9495L12.7481 30.079C12.7863 30.1616 12.8245 30.2448 12.8743 30.3239C13.7881 31.8515 14.8922 33.1541 16.1539 34.1954C16.3264 34.3366 16.4621 34.4028 16.5822 34.4028C16.7084 34.4028 16.8324 34.3291 16.9736 34.1709C17.2689 33.8367 17.4367 33.5912 17.084 33.2447C16.6026 32.7776 16.083 32.3329 15.5796 31.9026C14.8049 31.2398 14.0042 30.5551 13.3169 29.768C13.2337 29.6732 13.149 29.6248 13.0652 29.6248C12.9233 29.6248 12.7829 29.7681 12.6868 29.9495ZM21.6257 34.3332C21.667 34.2813 21.7076 34.2308 21.7481 34.1879C22.1654 33.7549 22.576 33.3122 22.9866 32.8697C23.5461 32.2668 24.106 31.6632 24.685 31.0802C24.8948 30.8708 24.9957 30.6792 24.9929 30.495C24.9889 30.2133 24.7433 29.9808 24.5057 29.7572L24.3823 29.6385C24.2561 29.5123 24.1453 29.4483 24.0529 29.4483C23.8878 29.4483 23.7702 29.6644 23.6662 29.8554C23.624 29.9331 23.583 30.0074 23.5411 30.0661C23.0333 30.7692 22.3497 31.2841 21.6888 31.7819C21.2565 32.1072 20.8094 32.4441 20.4203 32.8281L20.3041 32.9351C20.1319 33.0913 19.9689 33.2386 19.9273 33.4438C20.1745 33.8816 20.5408 34.252 21.0481 34.5759C21.1123 34.6182 21.1713 34.6387 21.2275 34.6387C21.3792 34.6387 21.5047 34.4833 21.6257 34.3332Z" fill="url(#paint0_linear_1217_3159)"/>
</g>
<g id="Vector_2">
<path fill-rule="evenodd" clip-rule="evenodd" d="M30.5968 20.6548C30.4563 20.6726 30.3267 20.6814 30.2081 20.6814C29.4259 20.6814 29.0825 20.2811 29.06 19.343C29.0275 17.8383 29.0296 16.3608 29.0665 14.9518C29.1408 12.4387 28.7395 10.0286 27.8396 7.58409C27.1832 5.78882 25.94 4.35461 24.145 3.32141C22.7047 2.49892 21.1464 2.08189 19.5131 2.08189C15.5096 2.08189 11.9128 4.58744 10.7657 8.17532C10.0817 10.2986 9.8083 12.2085 9.92965 14.0226C9.85595 15.6106 9.96104 17.0171 10.2501 18.3221C10.5522 19.6403 10.8885 20.8109 11.2772 21.9007C11.9742 23.8552 13.2835 25.1196 15.1692 25.6577L15.2715 25.6871C15.4113 25.728 15.5559 25.7695 15.6841 25.7695C15.8286 25.7695 15.9296 25.7143 16.0006 25.5943C16.585 24.6185 17.4586 24.4868 18.2367 24.4868C18.4687 24.4868 18.7046 24.4991 18.9408 24.5113L19.082 24.5189C20.2758 24.5837 21.0393 25.3325 21.1238 26.5218C21.2162 27.7179 20.4477 28.7027 19.2962 28.863C19.0177 28.9019 18.7656 28.9209 18.5262 28.9209C17.5889 28.9209 16.8626 28.6181 16.3054 27.9948C15.9106 27.5618 15.3737 27.3824 14.8999 27.2637C12.2033 26.5695 10.4459 24.8175 9.52864 21.9075C9.31861 21.246 9.02671 21.0127 8.37276 20.9841C6.7994 20.9064 5.82691 20.1153 5.47979 18.6313C5.1081 17.0393 5.21721 15.4284 5.80435 13.8436C6.10241 13.0405 6.5668 12.6014 7.14719 12.5734C8.18239 12.5103 8.28199 11.8539 8.398 11.0938L8.4144 10.9844C8.7731 8.61106 9.38548 6.79908 10.3444 5.28168C11.8153 2.9337 15.3138 0.40625 19.5179 0.40625C20.5644 0.40625 21.5925 0.570941 22.5732 0.895945C25.7492 1.9523 27.7484 3.54466 28.8647 5.90771C29.7711 7.82649 30.3327 9.60707 30.5819 11.3512C30.6705 11.9667 30.8939 12.1941 31.4661 12.2514C32.485 12.3479 33.1417 13.0056 33.3156 14.1036C33.4513 15.008 33.5928 16.0783 33.6133 17.1622C33.6575 19.5535 32.9527 20.3691 30.5968 20.6548ZM31.2144 13.9556L31.1748 14.0196C30.8728 14.0445 30.7991 14.2572 30.7783 14.5911L30.7452 15.2734C30.6981 16.2469 30.6511 17.2232 30.6204 18.1943L30.6152 18.3157C30.5979 18.657 30.6111 18.8674 30.9382 18.9066C30.9811 18.9121 31.0231 18.9148 31.064 18.9148C31.4057 18.9148 31.6688 18.7191 31.8046 18.3647C31.9454 17.9801 31.9345 17.5917 31.9225 17.1801C31.9174 17.0032 31.9126 16.8259 31.9201 16.6506C31.9406 15.8492 31.8669 15.1455 31.6951 14.4982C31.6072 14.1661 31.4601 14.0181 31.2188 14.0181V13.9561C31.2171 13.9562 31.2161 13.9556 31.2144 13.9556ZM7.7733 14.2303C7.54344 14.2303 7.37089 14.378 7.26045 14.6698C6.99586 15.3409 6.85395 16.0853 6.87993 16.6642C6.89292 17.9228 6.98354 18.8486 8.04338 19.3024C8.22343 19.3782 8.35985 19.4146 8.46212 19.4146C8.53849 19.4146 8.59445 19.3939 8.6326 19.3506C8.70556 19.267 8.72612 19.0931 8.69265 18.8333C8.63817 18.4214 8.56655 18.0115 8.4956 17.6012C8.33944 16.6976 8.17712 15.7634 8.19894 14.8198C8.20577 14.4938 8.14714 14.2694 7.83883 14.2339C7.81553 14.2314 7.79438 14.2303 7.7733 14.2303Z" fill="white"/>
<path fill-rule="evenodd" clip-rule="evenodd" d="M30.5968 20.6548C30.4563 20.6726 30.3267 20.6814 30.2081 20.6814C29.4259 20.6814 29.0825 20.2811 29.06 19.343C29.0275 17.8383 29.0296 16.3608 29.0665 14.9518C29.1408 12.4387 28.7395 10.0286 27.8396 7.58409C27.1832 5.78882 25.94 4.35461 24.145 3.32141C22.7047 2.49892 21.1464 2.08189 19.5131 2.08189C15.5096 2.08189 11.9128 4.58744 10.7657 8.17532C10.0817 10.2986 9.8083 12.2085 9.92965 14.0226C9.85595 15.6106 9.96104 17.0171 10.2501 18.3221C10.5522 19.6403 10.8885 20.8109 11.2772 21.9007C11.9742 23.8552 13.2835 25.1196 15.1692 25.6577L15.2715 25.6871C15.4113 25.728 15.5559 25.7695 15.6841 25.7695C15.8286 25.7695 15.9296 25.7143 16.0006 25.5943C16.585 24.6185 17.4586 24.4868 18.2367 24.4868C18.4687 24.4868 18.7046 24.4991 18.9408 24.5113L19.082 24.5189C20.2758 24.5837 21.0393 25.3325 21.1238 26.5218C21.2162 27.7179 20.4477 28.7027 19.2962 28.863C19.0177 28.9019 18.7656 28.9209 18.5262 28.9209C17.5889 28.9209 16.8626 28.6181 16.3054 27.9948C15.9106 27.5618 15.3737 27.3824 14.8999 27.2637C12.2033 26.5695 10.4459 24.8175 9.52864 21.9075C9.31861 21.246 9.02671 21.0127 8.37276 20.9841C6.7994 20.9064 5.82691 20.1153 5.47979 18.6313C5.1081 17.0393 5.21721 15.4284 5.80435 13.8436C6.10241 13.0405 6.5668 12.6014 7.14719 12.5734C8.18239 12.5103 8.28199 11.8539 8.398 11.0938L8.4144 10.9844C8.7731 8.61106 9.38548 6.79908 10.3444 5.28168C11.8153 2.9337 15.3138 0.40625 19.5179 0.40625C20.5644 0.40625 21.5925 0.570941 22.5732 0.895945C25.7492 1.9523 27.7484 3.54466 28.8647 5.90771C29.7711 7.82649 30.3327 9.60707 30.5819 11.3512C30.6705 11.9667 30.8939 12.1941 31.4661 12.2514C32.485 12.3479 33.1417 13.0056 33.3156 14.1036C33.4513 15.008 33.5928 16.0783 33.6133 17.1622C33.6575 19.5535 32.9527 20.3691 30.5968 20.6548ZM31.2144 13.9556L31.1748 14.0196C30.8728 14.0445 30.7991 14.2572 30.7783 14.5911L30.7452 15.2734C30.6981 16.2469 30.6511 17.2232 30.6204 18.1943L30.6152 18.3157C30.5979 18.657 30.6111 18.8674 30.9382 18.9066C30.9811 18.9121 31.0231 18.9148 31.064 18.9148C31.4057 18.9148 31.6688 18.7191 31.8046 18.3647C31.9454 17.9801 31.9345 17.5917 31.9225 17.1801C31.9174 17.0032 31.9126 16.8259 31.9201 16.6506C31.9406 15.8492 31.8669 15.1455 31.6951 14.4982C31.6072 14.1661 31.4601 14.0181 31.2188 14.0181V13.9561C31.2171 13.9562 31.2161 13.9556 31.2144 13.9556ZM7.7733 14.2303C7.54344 14.2303 7.37089 14.378 7.26045 14.6698C6.99586 15.3409 6.85395 16.0853 6.87993 16.6642C6.89292 17.9228 6.98354 18.8486 8.04338 19.3024C8.22343 19.3782 8.35985 19.4146 8.46212 19.4146C8.53849 19.4146 8.59445 19.3939 8.6326 19.3506C8.70556 19.267 8.72612 19.0931 8.69265 18.8333C8.63817 18.4214 8.56655 18.0115 8.4956 17.6012C8.33944 16.6976 8.17712 15.7634 8.19894 14.8198C8.20577 14.4938 8.14714 14.2694 7.83883 14.2339C7.81553 14.2314 7.79438 14.2303 7.7733 14.2303Z" fill="url(#paint1_linear_1217_3159)"/>
</g>
</g>
</g>
<defs>
<linearGradient id="paint0_linear_1217_3159" x1="35.7031" y1="5.24219" x2="-0.211221" y2="34.397" gradientUnits="userSpaceOnUse">
<stop stop-color="#F58CB8"/>
<stop offset="1" stop-color="#9FE2F0"/>
</linearGradient>
<linearGradient id="paint1_linear_1217_3159" x1="33.6152" y1="0.40625" x2="2.15318" y2="24.9298" gradientUnits="userSpaceOnUse">
<stop stop-color="#F58CB8"/>
<stop offset="1" stop-color="#9FE2F0"/>
</linearGradient>
</defs>
</svg>
