<svg width="33" height="43" viewBox="0 0 33 43" fill="none" xmlns="http://www.w3.org/2000/svg">
<g id="Group 420">
<g id="Group 417">
<path id="Vector" d="M4.96875 24.9167V33.8256C4.96482 34.783 5.14949 35.7318 5.51224 36.6178C5.87498 37.5038 6.40868 38.3097 7.08288 38.9894C7.75707 39.6692 8.55855 40.2095 9.44155 40.5795C10.3246 40.9495 11.2718 41.1419 12.2292 41.1458C13.1865 41.1419 14.1338 40.9495 15.0168 40.5795C15.8998 40.2095 16.7013 39.6692 17.3755 38.9894C18.0497 38.3097 18.5834 37.5038 18.9461 36.6178C19.3088 35.7318 19.4935 34.783 19.4896 33.8256V24.0625M11.3747 2.70703H9.62789C8.38508 2.70703 7.38997 3.98828 7.53091 5.41901C8.49185 14.0418 12.5235 24.0612 19.4892 24.0612C26.455 24.0612 30.4866 14.0418 31.4476 5.41901C31.5885 3.98828 30.5934 2.70703 29.3506 2.70703H27.6038M8.38607 21.4987C8.38607 23.3857 6.85637 24.9154 4.9694 24.9154C3.08243 24.9154 1.55273 23.3857 1.55273 21.4987C1.55273 19.6117 3.08243 18.082 4.9694 18.082C6.85637 18.082 8.38607 19.6117 8.38607 21.4987ZM12.4421 3.5638L10.3066 2.70964L12.4421 1.85547V3.5638ZM26 3.5638L28.1354 2.70964L26 1.85547V3.5638ZM5.82357 21.4987C5.82357 21.9704 5.44114 22.3529 4.9694 22.3529C4.49766 22.3529 4.11523 21.9704 4.11523 21.4987C4.11523 21.027 4.49766 20.6445 4.9694 20.6445C5.44114 20.6445 5.82357 21.027 5.82357 21.4987Z" stroke="url(#paint0_linear_1217_3593)" stroke-width="2" stroke-linecap="round" stroke-linejoin="round"/>
</g>
</g>
<defs>
<linearGradient id="paint0_linear_1217_3593" x1="2.5" y1="8" x2="23.5" y2="31" gradientUnits="userSpaceOnUse">
<stop stop-color="#E69BC2"/>
<stop offset="1" stop-color="#B0D1E5"/>
</linearGradient>
</defs>
</svg>
