<svg width="41" height="41" viewBox="0 0 41 41" fill="none" xmlns="http://www.w3.org/2000/svg">
<g id="6673746_checkup_doctor_health_healthcare_hospital_icon 1" clip-path="url(#clip0_1217_2874)">
<path id="Vector" d="M8.96875 23.9167V32.8256C8.96482 33.783 9.14949 34.7318 9.51224 35.6178C9.87498 36.5038 10.4087 37.3097 11.0829 37.9894C11.7571 38.6692 12.5585 39.2095 13.4416 39.5795C14.3246 39.9495 15.2718 40.1419 16.2292 40.1458C17.1865 40.1419 18.1338 39.9495 19.0168 39.5795C19.8998 39.2095 20.7013 38.6692 21.3755 37.9894C22.0497 37.3097 22.5834 36.5038 22.9461 35.6178C23.3088 34.7318 23.4935 33.783 23.4896 32.8256V23.0625" stroke="#191919" stroke-width="2" stroke-linecap="round" stroke-linejoin="round"/>
<path id="Vector_2" d="M8.9694 23.9154C10.8564 23.9154 12.3861 22.3857 12.3861 20.4987C12.3861 18.6117 10.8564 17.082 8.9694 17.082C7.08243 17.082 5.55273 18.6117 5.55273 20.4987C5.55273 22.3857 7.08243 23.9154 8.9694 23.9154Z" stroke="#191919" stroke-width="2" stroke-linecap="round" stroke-linejoin="round"/>
<path id="Vector_3" d="M8.9694 23.9154C10.8564 23.9154 12.3861 22.3857 12.3861 20.4987C12.3861 18.6117 10.8564 17.082 8.9694 17.082C7.08243 17.082 5.55273 18.6117 5.55273 20.4987C5.55273 22.3857 7.08243 23.9154 8.9694 23.9154Z" stroke="#191919" stroke-width="2" stroke-linecap="round" stroke-linejoin="round"/>
<path id="Vector_4" d="M30.5371 2.5638L32.6725 1.70964L30.5371 0.855469V2.5638Z" stroke="#191919" stroke-width="2" stroke-linecap="round" stroke-linejoin="round"/>
<path id="Vector_5" d="M15.3747 1.70703H13.6279C12.3851 1.70703 11.39 2.98828 11.5309 4.41901C12.4918 13.0418 16.5235 23.0612 23.4892 23.0612C30.455 23.0612 34.4866 13.0418 35.4476 4.41901C35.5885 2.98828 34.5934 1.70703 33.3506 1.70703H31.6038" stroke="#191919" stroke-width="2" stroke-linecap="round" stroke-linejoin="round"/>
<path id="Vector_6" d="M16.4421 2.5638L14.3066 1.70964L16.4421 0.855469V2.5638Z" stroke="#191919" stroke-width="2" stroke-linecap="round" stroke-linejoin="round"/>
<path id="Vector_7" d="M8.9694 21.3529C9.44114 21.3529 9.82357 20.9704 9.82357 20.4987C9.82357 20.027 9.44114 19.6445 8.9694 19.6445C8.49766 19.6445 8.11523 20.027 8.11523 20.4987C8.11523 20.9704 8.49766 21.3529 8.9694 21.3529Z" stroke="#191919" stroke-width="2" stroke-linecap="round" stroke-linejoin="round"/>
</g>
<defs>
<clipPath id="clip0_1217_2874">
<rect width="41" height="41" fill="white"/>
</clipPath>
</defs>
</svg>
