<svg width="52" height="52" viewBox="0 0 52 52" fill="none" xmlns="http://www.w3.org/2000/svg">
<g id="7490089_travel_passport_and_ticket_adventure_icon 1">
<g id="Group 418">
<g id="Vector">
<mask id="path-1-outside-1_1217_3415" maskUnits="userSpaceOnUse" x="9.26999" y="9.00537" width="38" height="42" fill="black">
<rect fill="white" x="9.26999" y="9.00537" width="38" height="42"/>
<path d="M44.3787 13.903L32.1912 10.133C31.4435 9.90618 30.6364 9.9838 29.9456 10.349C29.2548 10.7142 28.7362 11.3374 28.5025 12.083L28.0475 13.5455H13.2112C12.825 13.5454 12.4424 13.6214 12.0855 13.7691C11.7286 13.9169 11.4043 14.1335 11.1312 14.4067C10.858 14.6798 10.6414 15.0041 10.4936 15.361C10.3459 15.7179 10.2699 16.1005 10.27 16.4867V41.6093C10.2691 42.3911 10.5782 43.1414 11.1295 43.6957C11.6808 44.2501 12.4294 44.5633 13.2112 44.5667H19.3537C19.5275 44.9234 19.773 45.2403 20.075 45.4976C20.3771 45.7549 20.729 45.9469 21.1087 46.0618L33.605 49.913C33.8885 50.0038 34.1849 50.0477 34.4825 50.043C34.9691 50.0438 35.4486 49.9267 35.88 49.7018C36.2241 49.5164 36.5278 49.2643 36.7734 48.9601C37.0189 48.656 37.2013 48.306 37.31 47.9305L39.845 39.4318V39.3993L46.345 17.5593C46.5631 16.8137 46.4791 16.0123 46.1112 15.3282C45.7433 14.644 45.121 14.1321 44.3787 13.903ZM13.2112 43.4455C12.97 43.4458 12.7312 43.3984 12.5083 43.3063C12.2854 43.2141 12.0829 43.0788 11.9123 42.9083C11.7417 42.7378 11.6065 42.5353 11.5143 42.3124C11.4221 42.0895 11.3748 41.8506 11.375 41.6094V16.4869C11.3773 16.0006 11.5714 15.5349 11.9153 15.191C12.2592 14.8471 12.7249 14.6529 13.2112 14.6507H30.7125C31.1955 14.6505 31.6594 14.839 32.0055 15.1759C32.3515 15.5128 32.5523 15.9716 32.565 16.4544L32.6462 21.1507L32.6625 22.3207L32.695 24.1569L32.76 28.3007L32.7762 29.6982L32.7925 30.8032L32.9062 37.2707V37.4007L32.9712 41.5769C32.9762 41.8223 32.9318 42.0662 32.8406 42.2941C32.7495 42.522 32.6135 42.7292 32.4407 42.9035C32.2679 43.0778 32.0618 43.2156 31.8347 43.3088C31.6076 43.4019 31.3642 43.4485 31.1187 43.4457L13.2112 43.4455ZM36.2537 47.6217C36.1048 48.0939 35.7786 48.49 35.3437 48.7267C35.0784 48.8669 34.7826 48.9395 34.4825 48.938C34.3009 48.9348 34.1206 48.9074 33.9462 48.8568L21.4337 45.0055C21.1578 44.9213 20.9067 44.7706 20.7025 44.5667H31.1187C31.5125 44.5648 31.9019 44.4848 32.2645 44.3314C32.6271 44.178 32.9557 43.9542 33.2312 43.673C33.5057 43.3949 33.7218 43.0648 33.867 42.702C34.0121 42.3393 34.0832 41.9512 34.0762 41.5605L34.0275 38.0993L38.6262 39.6105L36.2537 47.6217ZM36.335 21.9792L40.56 27.6505L40.4137 28.2193L36.14 24.823C36.0668 24.7676 35.9817 24.73 35.8915 24.7131C35.8012 24.6962 35.7083 24.7004 35.62 24.7255C35.535 24.7595 35.4587 24.8123 35.3968 24.8798C35.3349 24.9473 35.289 25.0278 35.2625 25.1155L34.4012 28.268C34.3633 28.3975 34.3749 28.5365 34.4337 28.658L35.5712 31.0955L35.5225 31.2092L33.8975 30.0718L33.8162 25.2455L33.9462 24.758C33.9733 24.6688 33.9771 24.5742 33.9572 24.4832C33.9373 24.3921 33.8943 24.3077 33.8325 24.238L33.8 24.2055L33.7512 21.8655L34.6125 21.508C34.6904 21.4772 34.7602 21.429 34.8165 21.367C34.8729 21.3051 34.9143 21.231 34.9375 21.1505L35.7337 18.258C36.0262 17.153 36.5787 16.9092 36.8225 16.8442C37.0012 17.023 37.3425 17.5105 37.05 18.6155L36.2537 21.508C36.23 21.5875 36.225 21.6714 36.2391 21.7532C36.2532 21.8349 36.286 21.9123 36.335 21.9792ZM45.2725 17.2342L38.9512 38.538L33.995 36.9455L33.9137 31.4205L35.5387 32.5742C35.6351 32.6381 35.7482 32.6721 35.8637 32.6718C35.9251 32.6755 35.9864 32.6644 36.0425 32.6392C36.126 32.6103 36.2009 32.5609 36.2605 32.4957C36.3201 32.4304 36.3625 32.3513 36.3837 32.2655L36.6925 31.193C36.7223 31.0628 36.7109 30.9265 36.66 30.803L35.5225 28.3655L36.1075 26.2205L40.3812 29.6005C40.4545 29.6558 40.5396 29.6934 40.6298 29.7103C40.72 29.7273 40.8129 29.723 40.9012 29.698C40.9869 29.6698 41.0643 29.621 41.1267 29.5558C41.189 29.4906 41.2344 29.4111 41.2587 29.3242L41.6975 27.683C41.7213 27.6035 41.7263 27.5196 41.7122 27.4378C41.6981 27.3561 41.6653 27.2787 41.6162 27.2118L37.3912 21.5405L38.1062 18.908C38.7562 16.568 37.2775 15.8043 37.2125 15.788C37.1543 15.7497 37.087 15.7273 37.0175 15.723C36.9362 15.723 35.3112 15.6093 34.6612 17.9655L33.9462 20.598L33.735 20.6792L33.67 16.438C33.6509 15.6656 33.3312 14.9312 32.7789 14.3909C32.2265 13.8507 31.4851 13.5474 30.7125 13.5455H29.2012L29.5587 12.408C29.6306 12.1752 29.748 11.959 29.9042 11.7721C30.0605 11.5852 30.2524 11.4312 30.4687 11.3192C30.7355 11.1829 31.0304 11.1105 31.33 11.108C31.5115 11.1113 31.6919 11.1386 31.8662 11.1892L44.0537 14.9592C44.5159 15.101 44.9034 15.4197 45.1317 15.8458C45.36 16.272 45.4106 16.7709 45.2725 17.2342Z"/>
</mask>
<path d="M44.3787 13.903L32.1912 10.133C31.4435 9.90618 30.6364 9.9838 29.9456 10.349C29.2548 10.7142 28.7362 11.3374 28.5025 12.083L28.0475 13.5455H13.2112C12.825 13.5454 12.4424 13.6214 12.0855 13.7691C11.7286 13.9169 11.4043 14.1335 11.1312 14.4067C10.858 14.6798 10.6414 15.0041 10.4936 15.361C10.3459 15.7179 10.2699 16.1005 10.27 16.4867V41.6093C10.2691 42.3911 10.5782 43.1414 11.1295 43.6957C11.6808 44.2501 12.4294 44.5633 13.2112 44.5667H19.3537C19.5275 44.9234 19.773 45.2403 20.075 45.4976C20.3771 45.7549 20.729 45.9469 21.1087 46.0618L33.605 49.913C33.8885 50.0038 34.1849 50.0477 34.4825 50.043C34.9691 50.0438 35.4486 49.9267 35.88 49.7018C36.2241 49.5164 36.5278 49.2643 36.7734 48.9601C37.0189 48.656 37.2013 48.306 37.31 47.9305L39.845 39.4318V39.3993L46.345 17.5593C46.5631 16.8137 46.4791 16.0123 46.1112 15.3282C45.7433 14.644 45.121 14.1321 44.3787 13.903ZM13.2112 43.4455C12.97 43.4458 12.7312 43.3984 12.5083 43.3063C12.2854 43.2141 12.0829 43.0788 11.9123 42.9083C11.7417 42.7378 11.6065 42.5353 11.5143 42.3124C11.4221 42.0895 11.3748 41.8506 11.375 41.6094V16.4869C11.3773 16.0006 11.5714 15.5349 11.9153 15.191C12.2592 14.8471 12.7249 14.6529 13.2112 14.6507H30.7125C31.1955 14.6505 31.6594 14.839 32.0055 15.1759C32.3515 15.5128 32.5523 15.9716 32.565 16.4544L32.6462 21.1507L32.6625 22.3207L32.695 24.1569L32.76 28.3007L32.7762 29.6982L32.7925 30.8032L32.9062 37.2707V37.4007L32.9712 41.5769C32.9762 41.8223 32.9318 42.0662 32.8406 42.2941C32.7495 42.522 32.6135 42.7292 32.4407 42.9035C32.2679 43.0778 32.0618 43.2156 31.8347 43.3088C31.6076 43.4019 31.3642 43.4485 31.1187 43.4457L13.2112 43.4455ZM36.2537 47.6217C36.1048 48.0939 35.7786 48.49 35.3437 48.7267C35.0784 48.8669 34.7826 48.9395 34.4825 48.938C34.3009 48.9348 34.1206 48.9074 33.9462 48.8568L21.4337 45.0055C21.1578 44.9213 20.9067 44.7706 20.7025 44.5667H31.1187C31.5125 44.5648 31.9019 44.4848 32.2645 44.3314C32.6271 44.178 32.9557 43.9542 33.2312 43.673C33.5057 43.3949 33.7218 43.0648 33.867 42.702C34.0121 42.3393 34.0832 41.9512 34.0762 41.5605L34.0275 38.0993L38.6262 39.6105L36.2537 47.6217ZM36.335 21.9792L40.56 27.6505L40.4137 28.2193L36.14 24.823C36.0668 24.7676 35.9817 24.73 35.8915 24.7131C35.8012 24.6962 35.7083 24.7004 35.62 24.7255C35.535 24.7595 35.4587 24.8123 35.3968 24.8798C35.3349 24.9473 35.289 25.0278 35.2625 25.1155L34.4012 28.268C34.3633 28.3975 34.3749 28.5365 34.4337 28.658L35.5712 31.0955L35.5225 31.2092L33.8975 30.0718L33.8162 25.2455L33.9462 24.758C33.9733 24.6688 33.9771 24.5742 33.9572 24.4832C33.9373 24.3921 33.8943 24.3077 33.8325 24.238L33.8 24.2055L33.7512 21.8655L34.6125 21.508C34.6904 21.4772 34.7602 21.429 34.8165 21.367C34.8729 21.3051 34.9143 21.231 34.9375 21.1505L35.7337 18.258C36.0262 17.153 36.5787 16.9092 36.8225 16.8442C37.0012 17.023 37.3425 17.5105 37.05 18.6155L36.2537 21.508C36.23 21.5875 36.225 21.6714 36.2391 21.7532C36.2532 21.8349 36.286 21.9123 36.335 21.9792ZM45.2725 17.2342L38.9512 38.538L33.995 36.9455L33.9137 31.4205L35.5387 32.5742C35.6351 32.6381 35.7482 32.6721 35.8637 32.6718C35.9251 32.6755 35.9864 32.6644 36.0425 32.6392C36.126 32.6103 36.2009 32.5609 36.2605 32.4957C36.3201 32.4304 36.3625 32.3513 36.3837 32.2655L36.6925 31.193C36.7223 31.0628 36.7109 30.9265 36.66 30.803L35.5225 28.3655L36.1075 26.2205L40.3812 29.6005C40.4545 29.6558 40.5396 29.6934 40.6298 29.7103C40.72 29.7273 40.8129 29.723 40.9012 29.698C40.9869 29.6698 41.0643 29.621 41.1267 29.5558C41.189 29.4906 41.2344 29.4111 41.2587 29.3242L41.6975 27.683C41.7213 27.6035 41.7263 27.5196 41.7122 27.4378C41.6981 27.3561 41.6653 27.2787 41.6162 27.2118L37.3912 21.5405L38.1062 18.908C38.7562 16.568 37.2775 15.8043 37.2125 15.788C37.1543 15.7497 37.087 15.7273 37.0175 15.723C36.9362 15.723 35.3112 15.6093 34.6612 17.9655L33.9462 20.598L33.735 20.6792L33.67 16.438C33.6509 15.6656 33.3312 14.9312 32.7789 14.3909C32.2265 13.8507 31.4851 13.5474 30.7125 13.5455H29.2012L29.5587 12.408C29.6306 12.1752 29.748 11.959 29.9042 11.7721C30.0605 11.5852 30.2524 11.4312 30.4687 11.3192C30.7355 11.1829 31.0304 11.1105 31.33 11.108C31.5115 11.1113 31.6919 11.1386 31.8662 11.1892L44.0537 14.9592C44.5159 15.101 44.9034 15.4197 45.1317 15.8458C45.36 16.272 45.4106 16.7709 45.2725 17.2342Z" fill="#191919"/>
<path d="M44.3787 13.903L32.1912 10.133C31.4435 9.90618 30.6364 9.9838 29.9456 10.349C29.2548 10.7142 28.7362 11.3374 28.5025 12.083L28.0475 13.5455H13.2112C12.825 13.5454 12.4424 13.6214 12.0855 13.7691C11.7286 13.9169 11.4043 14.1335 11.1312 14.4067C10.858 14.6798 10.6414 15.0041 10.4936 15.361C10.3459 15.7179 10.2699 16.1005 10.27 16.4867V41.6093C10.2691 42.3911 10.5782 43.1414 11.1295 43.6957C11.6808 44.2501 12.4294 44.5633 13.2112 44.5667H19.3537C19.5275 44.9234 19.773 45.2403 20.075 45.4976C20.3771 45.7549 20.729 45.9469 21.1087 46.0618L33.605 49.913C33.8885 50.0038 34.1849 50.0477 34.4825 50.043C34.9691 50.0438 35.4486 49.9267 35.88 49.7018C36.2241 49.5164 36.5278 49.2643 36.7734 48.9601C37.0189 48.656 37.2013 48.306 37.31 47.9305L39.845 39.4318V39.3993L46.345 17.5593C46.5631 16.8137 46.4791 16.0123 46.1112 15.3282C45.7433 14.644 45.121 14.1321 44.3787 13.903ZM13.2112 43.4455C12.97 43.4458 12.7312 43.3984 12.5083 43.3063C12.2854 43.2141 12.0829 43.0788 11.9123 42.9083C11.7417 42.7378 11.6065 42.5353 11.5143 42.3124C11.4221 42.0895 11.3748 41.8506 11.375 41.6094V16.4869C11.3773 16.0006 11.5714 15.5349 11.9153 15.191C12.2592 14.8471 12.7249 14.6529 13.2112 14.6507H30.7125C31.1955 14.6505 31.6594 14.839 32.0055 15.1759C32.3515 15.5128 32.5523 15.9716 32.565 16.4544L32.6462 21.1507L32.6625 22.3207L32.695 24.1569L32.76 28.3007L32.7762 29.6982L32.7925 30.8032L32.9062 37.2707V37.4007L32.9712 41.5769C32.9762 41.8223 32.9318 42.0662 32.8406 42.2941C32.7495 42.522 32.6135 42.7292 32.4407 42.9035C32.2679 43.0778 32.0618 43.2156 31.8347 43.3088C31.6076 43.4019 31.3642 43.4485 31.1187 43.4457L13.2112 43.4455ZM36.2537 47.6217C36.1048 48.0939 35.7786 48.49 35.3437 48.7267C35.0784 48.8669 34.7826 48.9395 34.4825 48.938C34.3009 48.9348 34.1206 48.9074 33.9462 48.8568L21.4337 45.0055C21.1578 44.9213 20.9067 44.7706 20.7025 44.5667H31.1187C31.5125 44.5648 31.9019 44.4848 32.2645 44.3314C32.6271 44.178 32.9557 43.9542 33.2312 43.673C33.5057 43.3949 33.7218 43.0648 33.867 42.702C34.0121 42.3393 34.0832 41.9512 34.0762 41.5605L34.0275 38.0993L38.6262 39.6105L36.2537 47.6217ZM36.335 21.9792L40.56 27.6505L40.4137 28.2193L36.14 24.823C36.0668 24.7676 35.9817 24.73 35.8915 24.7131C35.8012 24.6962 35.7083 24.7004 35.62 24.7255C35.535 24.7595 35.4587 24.8123 35.3968 24.8798C35.3349 24.9473 35.289 25.0278 35.2625 25.1155L34.4012 28.268C34.3633 28.3975 34.3749 28.5365 34.4337 28.658L35.5712 31.0955L35.5225 31.2092L33.8975 30.0718L33.8162 25.2455L33.9462 24.758C33.9733 24.6688 33.9771 24.5742 33.9572 24.4832C33.9373 24.3921 33.8943 24.3077 33.8325 24.238L33.8 24.2055L33.7512 21.8655L34.6125 21.508C34.6904 21.4772 34.7602 21.429 34.8165 21.367C34.8729 21.3051 34.9143 21.231 34.9375 21.1505L35.7337 18.258C36.0262 17.153 36.5787 16.9092 36.8225 16.8442C37.0012 17.023 37.3425 17.5105 37.05 18.6155L36.2537 21.508C36.23 21.5875 36.225 21.6714 36.2391 21.7532C36.2532 21.8349 36.286 21.9123 36.335 21.9792ZM45.2725 17.2342L38.9512 38.538L33.995 36.9455L33.9137 31.4205L35.5387 32.5742C35.6351 32.6381 35.7482 32.6721 35.8637 32.6718C35.9251 32.6755 35.9864 32.6644 36.0425 32.6392C36.126 32.6103 36.2009 32.5609 36.2605 32.4957C36.3201 32.4304 36.3625 32.3513 36.3837 32.2655L36.6925 31.193C36.7223 31.0628 36.7109 30.9265 36.66 30.803L35.5225 28.3655L36.1075 26.2205L40.3812 29.6005C40.4545 29.6558 40.5396 29.6934 40.6298 29.7103C40.72 29.7273 40.8129 29.723 40.9012 29.698C40.9869 29.6698 41.0643 29.621 41.1267 29.5558C41.189 29.4906 41.2344 29.4111 41.2587 29.3242L41.6975 27.683C41.7213 27.6035 41.7263 27.5196 41.7122 27.4378C41.6981 27.3561 41.6653 27.2787 41.6162 27.2118L37.3912 21.5405L38.1062 18.908C38.7562 16.568 37.2775 15.8043 37.2125 15.788C37.1543 15.7497 37.087 15.7273 37.0175 15.723C36.9362 15.723 35.3112 15.6093 34.6612 17.9655L33.9462 20.598L33.735 20.6792L33.67 16.438C33.6509 15.6656 33.3312 14.9312 32.7789 14.3909C32.2265 13.8507 31.4851 13.5474 30.7125 13.5455H29.2012L29.5587 12.408C29.6306 12.1752 29.748 11.959 29.9042 11.7721C30.0605 11.5852 30.2524 11.4312 30.4687 11.3192C30.7355 11.1829 31.0304 11.1105 31.33 11.108C31.5115 11.1113 31.6919 11.1386 31.8662 11.1892L44.0537 14.9592C44.5159 15.101 44.9034 15.4197 45.1317 15.8458C45.36 16.272 45.4106 16.7709 45.2725 17.2342Z" fill="url(#paint0_linear_1217_3415)"/>
<path d="M44.3787 13.903L32.1912 10.133C31.4435 9.90618 30.6364 9.9838 29.9456 10.349C29.2548 10.7142 28.7362 11.3374 28.5025 12.083L28.0475 13.5455H13.2112C12.825 13.5454 12.4424 13.6214 12.0855 13.7691C11.7286 13.9169 11.4043 14.1335 11.1312 14.4067C10.858 14.6798 10.6414 15.0041 10.4936 15.361C10.3459 15.7179 10.2699 16.1005 10.27 16.4867V41.6093C10.2691 42.3911 10.5782 43.1414 11.1295 43.6957C11.6808 44.2501 12.4294 44.5633 13.2112 44.5667H19.3537C19.5275 44.9234 19.773 45.2403 20.075 45.4976C20.3771 45.7549 20.729 45.9469 21.1087 46.0618L33.605 49.913C33.8885 50.0038 34.1849 50.0477 34.4825 50.043C34.9691 50.0438 35.4486 49.9267 35.88 49.7018C36.2241 49.5164 36.5278 49.2643 36.7734 48.9601C37.0189 48.656 37.2013 48.306 37.31 47.9305L39.845 39.4318V39.3993L46.345 17.5593C46.5631 16.8137 46.4791 16.0123 46.1112 15.3282C45.7433 14.644 45.121 14.1321 44.3787 13.903ZM13.2112 43.4455C12.97 43.4458 12.7312 43.3984 12.5083 43.3063C12.2854 43.2141 12.0829 43.0788 11.9123 42.9083C11.7417 42.7378 11.6065 42.5353 11.5143 42.3124C11.4221 42.0895 11.3748 41.8506 11.375 41.6094V16.4869C11.3773 16.0006 11.5714 15.5349 11.9153 15.191C12.2592 14.8471 12.7249 14.6529 13.2112 14.6507H30.7125C31.1955 14.6505 31.6594 14.839 32.0055 15.1759C32.3515 15.5128 32.5523 15.9716 32.565 16.4544L32.6462 21.1507L32.6625 22.3207L32.695 24.1569L32.76 28.3007L32.7762 29.6982L32.7925 30.8032L32.9062 37.2707V37.4007L32.9712 41.5769C32.9762 41.8223 32.9318 42.0662 32.8406 42.2941C32.7495 42.522 32.6135 42.7292 32.4407 42.9035C32.2679 43.0778 32.0618 43.2156 31.8347 43.3088C31.6076 43.4019 31.3642 43.4485 31.1187 43.4457L13.2112 43.4455ZM36.2537 47.6217C36.1048 48.0939 35.7786 48.49 35.3437 48.7267C35.0784 48.8669 34.7826 48.9395 34.4825 48.938C34.3009 48.9348 34.1206 48.9074 33.9462 48.8568L21.4337 45.0055C21.1578 44.9213 20.9067 44.7706 20.7025 44.5667H31.1187C31.5125 44.5648 31.9019 44.4848 32.2645 44.3314C32.6271 44.178 32.9557 43.9542 33.2312 43.673C33.5057 43.3949 33.7218 43.0648 33.867 42.702C34.0121 42.3393 34.0832 41.9512 34.0762 41.5605L34.0275 38.0993L38.6262 39.6105L36.2537 47.6217ZM36.335 21.9792L40.56 27.6505L40.4137 28.2193L36.14 24.823C36.0668 24.7676 35.9817 24.73 35.8915 24.7131C35.8012 24.6962 35.7083 24.7004 35.62 24.7255C35.535 24.7595 35.4587 24.8123 35.3968 24.8798C35.3349 24.9473 35.289 25.0278 35.2625 25.1155L34.4012 28.268C34.3633 28.3975 34.3749 28.5365 34.4337 28.658L35.5712 31.0955L35.5225 31.2092L33.8975 30.0718L33.8162 25.2455L33.9462 24.758C33.9733 24.6688 33.9771 24.5742 33.9572 24.4832C33.9373 24.3921 33.8943 24.3077 33.8325 24.238L33.8 24.2055L33.7512 21.8655L34.6125 21.508C34.6904 21.4772 34.7602 21.429 34.8165 21.367C34.8729 21.3051 34.9143 21.231 34.9375 21.1505L35.7337 18.258C36.0262 17.153 36.5787 16.9092 36.8225 16.8442C37.0012 17.023 37.3425 17.5105 37.05 18.6155L36.2537 21.508C36.23 21.5875 36.225 21.6714 36.2391 21.7532C36.2532 21.8349 36.286 21.9123 36.335 21.9792ZM45.2725 17.2342L38.9512 38.538L33.995 36.9455L33.9137 31.4205L35.5387 32.5742C35.6351 32.6381 35.7482 32.6721 35.8637 32.6718C35.9251 32.6755 35.9864 32.6644 36.0425 32.6392C36.126 32.6103 36.2009 32.5609 36.2605 32.4957C36.3201 32.4304 36.3625 32.3513 36.3837 32.2655L36.6925 31.193C36.7223 31.0628 36.7109 30.9265 36.66 30.803L35.5225 28.3655L36.1075 26.2205L40.3812 29.6005C40.4545 29.6558 40.5396 29.6934 40.6298 29.7103C40.72 29.7273 40.8129 29.723 40.9012 29.698C40.9869 29.6698 41.0643 29.621 41.1267 29.5558C41.189 29.4906 41.2344 29.4111 41.2587 29.3242L41.6975 27.683C41.7213 27.6035 41.7263 27.5196 41.7122 27.4378C41.6981 27.3561 41.6653 27.2787 41.6162 27.2118L37.3912 21.5405L38.1062 18.908C38.7562 16.568 37.2775 15.8043 37.2125 15.788C37.1543 15.7497 37.087 15.7273 37.0175 15.723C36.9362 15.723 35.3112 15.6093 34.6612 17.9655L33.9462 20.598L33.735 20.6792L33.67 16.438C33.6509 15.6656 33.3312 14.9312 32.7789 14.3909C32.2265 13.8507 31.4851 13.5474 30.7125 13.5455H29.2012L29.5587 12.408C29.6306 12.1752 29.748 11.959 29.9042 11.7721C30.0605 11.5852 30.2524 11.4312 30.4687 11.3192C30.7355 11.1829 31.0304 11.1105 31.33 11.108C31.5115 11.1113 31.6919 11.1386 31.8662 11.1892L44.0537 14.9592C44.5159 15.101 44.9034 15.4197 45.1317 15.8458C45.36 16.272 45.4106 16.7709 45.2725 17.2342Z" stroke="#191919" stroke-width="0.4" mask="url(#path-1-outside-1_1217_3415)"/>
<path d="M44.3787 13.903L32.1912 10.133C31.4435 9.90618 30.6364 9.9838 29.9456 10.349C29.2548 10.7142 28.7362 11.3374 28.5025 12.083L28.0475 13.5455H13.2112C12.825 13.5454 12.4424 13.6214 12.0855 13.7691C11.7286 13.9169 11.4043 14.1335 11.1312 14.4067C10.858 14.6798 10.6414 15.0041 10.4936 15.361C10.3459 15.7179 10.2699 16.1005 10.27 16.4867V41.6093C10.2691 42.3911 10.5782 43.1414 11.1295 43.6957C11.6808 44.2501 12.4294 44.5633 13.2112 44.5667H19.3537C19.5275 44.9234 19.773 45.2403 20.075 45.4976C20.3771 45.7549 20.729 45.9469 21.1087 46.0618L33.605 49.913C33.8885 50.0038 34.1849 50.0477 34.4825 50.043C34.9691 50.0438 35.4486 49.9267 35.88 49.7018C36.2241 49.5164 36.5278 49.2643 36.7734 48.9601C37.0189 48.656 37.2013 48.306 37.31 47.9305L39.845 39.4318V39.3993L46.345 17.5593C46.5631 16.8137 46.4791 16.0123 46.1112 15.3282C45.7433 14.644 45.121 14.1321 44.3787 13.903ZM13.2112 43.4455C12.97 43.4458 12.7312 43.3984 12.5083 43.3063C12.2854 43.2141 12.0829 43.0788 11.9123 42.9083C11.7417 42.7378 11.6065 42.5353 11.5143 42.3124C11.4221 42.0895 11.3748 41.8506 11.375 41.6094V16.4869C11.3773 16.0006 11.5714 15.5349 11.9153 15.191C12.2592 14.8471 12.7249 14.6529 13.2112 14.6507H30.7125C31.1955 14.6505 31.6594 14.839 32.0055 15.1759C32.3515 15.5128 32.5523 15.9716 32.565 16.4544L32.6462 21.1507L32.6625 22.3207L32.695 24.1569L32.76 28.3007L32.7762 29.6982L32.7925 30.8032L32.9062 37.2707V37.4007L32.9712 41.5769C32.9762 41.8223 32.9318 42.0662 32.8406 42.2941C32.7495 42.522 32.6135 42.7292 32.4407 42.9035C32.2679 43.0778 32.0618 43.2156 31.8347 43.3088C31.6076 43.4019 31.3642 43.4485 31.1187 43.4457L13.2112 43.4455ZM36.2537 47.6217C36.1048 48.0939 35.7786 48.49 35.3437 48.7267C35.0784 48.8669 34.7826 48.9395 34.4825 48.938C34.3009 48.9348 34.1206 48.9074 33.9462 48.8568L21.4337 45.0055C21.1578 44.9213 20.9067 44.7706 20.7025 44.5667H31.1187C31.5125 44.5648 31.9019 44.4848 32.2645 44.3314C32.6271 44.178 32.9557 43.9542 33.2312 43.673C33.5057 43.3949 33.7218 43.0648 33.867 42.702C34.0121 42.3393 34.0832 41.9512 34.0762 41.5605L34.0275 38.0993L38.6262 39.6105L36.2537 47.6217ZM36.335 21.9792L40.56 27.6505L40.4137 28.2193L36.14 24.823C36.0668 24.7676 35.9817 24.73 35.8915 24.7131C35.8012 24.6962 35.7083 24.7004 35.62 24.7255C35.535 24.7595 35.4587 24.8123 35.3968 24.8798C35.3349 24.9473 35.289 25.0278 35.2625 25.1155L34.4012 28.268C34.3633 28.3975 34.3749 28.5365 34.4337 28.658L35.5712 31.0955L35.5225 31.2092L33.8975 30.0718L33.8162 25.2455L33.9462 24.758C33.9733 24.6688 33.9771 24.5742 33.9572 24.4832C33.9373 24.3921 33.8943 24.3077 33.8325 24.238L33.8 24.2055L33.7512 21.8655L34.6125 21.508C34.6904 21.4772 34.7602 21.429 34.8165 21.367C34.8729 21.3051 34.9143 21.231 34.9375 21.1505L35.7337 18.258C36.0262 17.153 36.5787 16.9092 36.8225 16.8442C37.0012 17.023 37.3425 17.5105 37.05 18.6155L36.2537 21.508C36.23 21.5875 36.225 21.6714 36.2391 21.7532C36.2532 21.8349 36.286 21.9123 36.335 21.9792ZM45.2725 17.2342L38.9512 38.538L33.995 36.9455L33.9137 31.4205L35.5387 32.5742C35.6351 32.6381 35.7482 32.6721 35.8637 32.6718C35.9251 32.6755 35.9864 32.6644 36.0425 32.6392C36.126 32.6103 36.2009 32.5609 36.2605 32.4957C36.3201 32.4304 36.3625 32.3513 36.3837 32.2655L36.6925 31.193C36.7223 31.0628 36.7109 30.9265 36.66 30.803L35.5225 28.3655L36.1075 26.2205L40.3812 29.6005C40.4545 29.6558 40.5396 29.6934 40.6298 29.7103C40.72 29.7273 40.8129 29.723 40.9012 29.698C40.9869 29.6698 41.0643 29.621 41.1267 29.5558C41.189 29.4906 41.2344 29.4111 41.2587 29.3242L41.6975 27.683C41.7213 27.6035 41.7263 27.5196 41.7122 27.4378C41.6981 27.3561 41.6653 27.2787 41.6162 27.2118L37.3912 21.5405L38.1062 18.908C38.7562 16.568 37.2775 15.8043 37.2125 15.788C37.1543 15.7497 37.087 15.7273 37.0175 15.723C36.9362 15.723 35.3112 15.6093 34.6612 17.9655L33.9462 20.598L33.735 20.6792L33.67 16.438C33.6509 15.6656 33.3312 14.9312 32.7789 14.3909C32.2265 13.8507 31.4851 13.5474 30.7125 13.5455H29.2012L29.5587 12.408C29.6306 12.1752 29.748 11.959 29.9042 11.7721C30.0605 11.5852 30.2524 11.4312 30.4687 11.3192C30.7355 11.1829 31.0304 11.1105 31.33 11.108C31.5115 11.1113 31.6919 11.1386 31.8662 11.1892L44.0537 14.9592C44.5159 15.101 44.9034 15.4197 45.1317 15.8458C45.36 16.272 45.4106 16.7709 45.2725 17.2342Z" stroke="url(#paint1_linear_1217_3415)" stroke-width="0.4" mask="url(#path-1-outside-1_1217_3415)"/>
</g>
<g id="Vector_2">
<path d="M31.1187 39.2857C31.1915 39.2863 31.2636 39.2724 31.3309 39.2449C31.3982 39.2173 31.4594 39.1767 31.5108 39.1252C31.5623 39.0738 31.6029 39.0127 31.6305 38.9453C31.658 38.878 31.6719 38.8059 31.6712 38.7332C31.6698 38.5871 31.6111 38.4474 31.5078 38.3441C31.4045 38.2408 31.2648 38.1821 31.1187 38.1807H13.2112C13.0652 38.1822 12.9255 38.2409 12.8222 38.3442C12.719 38.4475 12.6603 38.5871 12.6587 38.7332C12.6581 38.8059 12.672 38.878 12.6995 38.9453C12.7271 39.0127 12.7677 39.0738 12.8192 39.1252C12.8706 39.1767 12.9318 39.2173 12.9991 39.2449C13.0664 39.2724 13.1385 39.2863 13.2112 39.2857H31.1187Z" fill="#191919"/>
<path d="M31.1187 39.2857C31.1915 39.2863 31.2636 39.2724 31.3309 39.2449C31.3982 39.2173 31.4594 39.1767 31.5108 39.1252C31.5623 39.0738 31.6029 39.0127 31.6305 38.9453C31.658 38.878 31.6719 38.8059 31.6712 38.7332C31.6698 38.5871 31.6111 38.4474 31.5078 38.3441C31.4045 38.2408 31.2648 38.1821 31.1187 38.1807H13.2112C13.0652 38.1822 12.9255 38.2409 12.8222 38.3442C12.719 38.4475 12.6603 38.5871 12.6587 38.7332C12.6581 38.8059 12.672 38.878 12.6995 38.9453C12.7271 39.0127 12.7677 39.0738 12.8192 39.1252C12.8706 39.1767 12.9318 39.2173 12.9991 39.2449C13.0664 39.2724 13.1385 39.2863 13.2112 39.2857H31.1187Z" fill="url(#paint2_linear_1217_3415)"/>
</g>
<g id="Vector_3">
<path d="M15.1775 30.5267C15.8562 31.646 16.7963 32.5841 17.917 33.2605C19.0378 33.9369 20.3058 34.3315 21.6125 34.4104C21.7039 34.4239 21.7964 34.4294 21.8888 34.4267C21.9317 34.4349 21.9758 34.4349 22.0188 34.4267C22.0663 34.4401 22.1157 34.4456 22.165 34.4429C22.2625 34.4429 22.3763 34.4267 22.4738 34.4267C22.5715 34.4294 22.6694 34.424 22.7663 34.4104C24.0641 34.3223 25.3217 33.9235 26.4331 33.2476C27.5446 32.5717 28.4772 31.6385 29.1525 30.5267C29.1938 30.4907 29.2271 30.4464 29.25 30.3967C29.25 30.3804 29.2663 30.3804 29.2663 30.3642C29.315 30.2829 29.3475 30.2179 29.3963 30.1367C29.3963 30.1204 29.4125 30.1204 29.4125 30.1042C29.6188 29.7184 29.7927 29.3162 29.9325 28.9017C30.2332 28.0397 30.387 27.1334 30.3875 26.2204C30.3875 26.0092 30.3713 25.7979 30.355 25.5867C30.3315 25.2208 30.2826 24.857 30.2088 24.4979C30.1305 24.1497 30.0273 23.8076 29.9 23.4742C29.7827 23.1289 29.6416 22.7923 29.4775 22.4667C29.4059 22.3205 29.3244 22.1794 29.2338 22.0442V22.0279C29.2106 21.9874 29.1834 21.9492 29.1525 21.9142C28.6602 21.0998 28.0275 20.3791 27.2838 19.7854C26.9838 19.5411 26.663 19.3236 26.325 19.1354C24.4523 18.0305 22.2174 17.7144 20.1118 18.2568C18.0061 18.7993 16.202 20.1557 15.0963 22.0279V22.0442C14.3412 23.3064 13.9425 24.7496 13.9425 26.2204C13.9425 27.6912 14.3412 29.1345 15.0963 30.3967C15.1135 30.4454 15.1412 30.4898 15.1775 30.5267ZM15.8275 23.0192C16.4822 23.308 17.1698 23.5154 17.875 23.6367C17.7363 24.491 17.6656 25.3549 17.6638 26.2204C17.6649 27.0806 17.7356 27.9392 17.875 28.7879C17.1741 28.9267 16.4883 29.1336 15.8275 29.4054C15.3254 28.4159 15.0637 27.3219 15.0637 26.2123C15.0637 25.1027 15.3254 24.0087 15.8275 23.0192ZM18.7688 26.2204C18.7629 25.4193 18.8336 24.6194 18.98 23.8317C19.8516 23.9625 20.7312 24.0331 21.6125 24.0429V28.3979C20.7313 28.4097 19.8518 28.4803 18.98 28.6092C18.8336 27.8214 18.7629 27.0216 18.7688 26.2204ZM25.3663 23.8317C25.4653 24.3469 25.5304 24.868 25.5613 25.3917C25.5613 25.6679 25.5775 25.9442 25.5775 26.2204C25.5834 27.0162 25.5127 27.8107 25.3663 28.5929C25.1225 28.5604 24.8625 28.5279 24.6025 28.4954C24.2288 28.4629 23.855 28.4304 23.465 28.4142C23.2213 28.3979 22.9613 28.3979 22.7175 28.3979V24.0429C23.4488 24.0267 24.18 23.9779 24.8625 23.8967C25.0315 23.884 25.1996 23.8624 25.3663 23.8317ZM21.6125 29.5029V33.2242C20.9732 32.8518 20.4263 32.3397 20.0127 31.7263C19.5991 31.1129 19.3294 30.414 19.2238 29.6817C20.0153 29.5705 20.8132 29.5109 21.6125 29.5029ZM23.205 32.9804C23.0531 33.0857 22.8895 33.1729 22.7175 33.2404V29.5029H23.1238C23.5138 29.5192 23.8875 29.5517 24.2613 29.5842C24.5538 29.6167 24.8463 29.6492 25.1225 29.6817C24.8748 30.9665 24.1988 32.1293 23.205 32.9804ZM22.7175 22.9217V19.2004C23.3596 19.5753 23.9091 20.0898 24.3254 20.7059C24.7417 21.3219 25.0141 22.0236 25.1225 22.7592C24.3251 22.8641 23.5218 22.9183 22.7175 22.9217ZM21.6125 19.2167V22.9217C20.8136 22.9189 20.0157 22.8646 19.2238 22.7592C19.3295 22.0269 19.5992 21.328 20.0128 20.7145C20.4265 20.101 20.9733 19.5892 21.6125 19.2167ZM16.3963 30.3642C16.9558 30.1498 17.5319 29.9813 18.1188 29.8604C18.3759 30.9124 18.8219 31.909 19.435 32.8017C18.2175 32.2836 17.1661 31.4404 16.3963 30.3642ZM24.9275 32.7854C25.5257 31.8982 25.9655 30.9141 26.2275 29.8767C26.8098 29.9872 27.3809 30.1504 27.9338 30.3642C27.1748 31.4336 26.1342 32.2719 24.9275 32.7854ZM29.1038 24.6442C29.1907 25.0069 29.2451 25.3767 29.2663 25.7492C29.2799 25.9059 29.2853 26.0632 29.2825 26.2204C29.2824 27.3274 29.0207 28.4188 28.5188 29.4054C27.8588 29.1313 27.1728 28.9244 26.4713 28.7879C26.6108 27.9392 26.6815 27.0806 26.6825 26.2204C26.6825 26.0417 26.6825 25.8629 26.6663 25.6842V25.2942C26.6175 24.7253 26.5525 24.1728 26.4713 23.6367C26.7313 23.5879 26.975 23.5392 27.2188 23.4742C27.2231 23.4742 27.2272 23.4725 27.2303 23.4694C27.2333 23.4664 27.235 23.4622 27.235 23.4579C27.6769 23.3562 28.1071 23.2091 28.5188 23.0192C28.6669 23.3067 28.7918 23.6056 28.8925 23.9129C28.9821 24.1507 29.0527 24.3953 29.1038 24.6442ZM25.9838 20.2242C26.318 20.4348 26.6334 20.6741 26.9263 20.9392C27.304 21.279 27.642 21.6606 27.9338 22.0767C27.4512 22.2722 26.9504 22.4192 26.4388 22.5154C26.3738 22.5317 26.2925 22.5479 26.2275 22.5642C26.094 22.0602 25.9257 21.5661 25.7238 21.0854C25.5054 20.5892 25.2387 20.1156 24.9275 19.6717C25.2973 19.8197 25.6512 20.0049 25.9838 20.2242ZM19.435 19.6554C18.8239 20.5354 18.3829 21.5219 18.135 22.5642C17.5474 22.4535 16.971 22.2903 16.4125 22.0767C17.1685 20.9978 18.2172 20.1579 19.435 19.6554Z" fill="#191919"/>
<path d="M15.1775 30.5267C15.8562 31.646 16.7963 32.5841 17.917 33.2605C19.0378 33.9369 20.3058 34.3315 21.6125 34.4104C21.7039 34.4239 21.7964 34.4294 21.8888 34.4267C21.9317 34.4349 21.9758 34.4349 22.0188 34.4267C22.0663 34.4401 22.1157 34.4456 22.165 34.4429C22.2625 34.4429 22.3763 34.4267 22.4738 34.4267C22.5715 34.4294 22.6694 34.424 22.7663 34.4104C24.0641 34.3223 25.3217 33.9235 26.4331 33.2476C27.5446 32.5717 28.4772 31.6385 29.1525 30.5267C29.1938 30.4907 29.2271 30.4464 29.25 30.3967C29.25 30.3804 29.2663 30.3804 29.2663 30.3642C29.315 30.2829 29.3475 30.2179 29.3963 30.1367C29.3963 30.1204 29.4125 30.1204 29.4125 30.1042C29.6188 29.7184 29.7927 29.3162 29.9325 28.9017C30.2332 28.0397 30.387 27.1334 30.3875 26.2204C30.3875 26.0092 30.3713 25.7979 30.355 25.5867C30.3315 25.2208 30.2826 24.857 30.2088 24.4979C30.1305 24.1497 30.0273 23.8076 29.9 23.4742C29.7827 23.1289 29.6416 22.7923 29.4775 22.4667C29.4059 22.3205 29.3244 22.1794 29.2338 22.0442V22.0279C29.2106 21.9874 29.1834 21.9492 29.1525 21.9142C28.6602 21.0998 28.0275 20.3791 27.2838 19.7854C26.9838 19.5411 26.663 19.3236 26.325 19.1354C24.4523 18.0305 22.2174 17.7144 20.1118 18.2568C18.0061 18.7993 16.202 20.1557 15.0963 22.0279V22.0442C14.3412 23.3064 13.9425 24.7496 13.9425 26.2204C13.9425 27.6912 14.3412 29.1345 15.0963 30.3967C15.1135 30.4454 15.1412 30.4898 15.1775 30.5267ZM15.8275 23.0192C16.4822 23.308 17.1698 23.5154 17.875 23.6367C17.7363 24.491 17.6656 25.3549 17.6638 26.2204C17.6649 27.0806 17.7356 27.9392 17.875 28.7879C17.1741 28.9267 16.4883 29.1336 15.8275 29.4054C15.3254 28.4159 15.0637 27.3219 15.0637 26.2123C15.0637 25.1027 15.3254 24.0087 15.8275 23.0192ZM18.7688 26.2204C18.7629 25.4193 18.8336 24.6194 18.98 23.8317C19.8516 23.9625 20.7312 24.0331 21.6125 24.0429V28.3979C20.7313 28.4097 19.8518 28.4803 18.98 28.6092C18.8336 27.8214 18.7629 27.0216 18.7688 26.2204ZM25.3663 23.8317C25.4653 24.3469 25.5304 24.868 25.5613 25.3917C25.5613 25.6679 25.5775 25.9442 25.5775 26.2204C25.5834 27.0162 25.5127 27.8107 25.3663 28.5929C25.1225 28.5604 24.8625 28.5279 24.6025 28.4954C24.2288 28.4629 23.855 28.4304 23.465 28.4142C23.2213 28.3979 22.9613 28.3979 22.7175 28.3979V24.0429C23.4488 24.0267 24.18 23.9779 24.8625 23.8967C25.0315 23.884 25.1996 23.8624 25.3663 23.8317ZM21.6125 29.5029V33.2242C20.9732 32.8518 20.4263 32.3397 20.0127 31.7263C19.5991 31.1129 19.3294 30.414 19.2238 29.6817C20.0153 29.5705 20.8132 29.5109 21.6125 29.5029ZM23.205 32.9804C23.0531 33.0857 22.8895 33.1729 22.7175 33.2404V29.5029H23.1238C23.5138 29.5192 23.8875 29.5517 24.2613 29.5842C24.5538 29.6167 24.8463 29.6492 25.1225 29.6817C24.8748 30.9665 24.1988 32.1293 23.205 32.9804ZM22.7175 22.9217V19.2004C23.3596 19.5753 23.9091 20.0898 24.3254 20.7059C24.7417 21.3219 25.0141 22.0236 25.1225 22.7592C24.3251 22.8641 23.5218 22.9183 22.7175 22.9217ZM21.6125 19.2167V22.9217C20.8136 22.9189 20.0157 22.8646 19.2238 22.7592C19.3295 22.0269 19.5992 21.328 20.0128 20.7145C20.4265 20.101 20.9733 19.5892 21.6125 19.2167ZM16.3963 30.3642C16.9558 30.1498 17.5319 29.9813 18.1188 29.8604C18.3759 30.9124 18.8219 31.909 19.435 32.8017C18.2175 32.2836 17.1661 31.4404 16.3963 30.3642ZM24.9275 32.7854C25.5257 31.8982 25.9655 30.9141 26.2275 29.8767C26.8098 29.9872 27.3809 30.1504 27.9338 30.3642C27.1748 31.4336 26.1342 32.2719 24.9275 32.7854ZM29.1038 24.6442C29.1907 25.0069 29.2451 25.3767 29.2663 25.7492C29.2799 25.9059 29.2853 26.0632 29.2825 26.2204C29.2824 27.3274 29.0207 28.4188 28.5188 29.4054C27.8588 29.1313 27.1728 28.9244 26.4713 28.7879C26.6108 27.9392 26.6815 27.0806 26.6825 26.2204C26.6825 26.0417 26.6825 25.8629 26.6663 25.6842V25.2942C26.6175 24.7253 26.5525 24.1728 26.4713 23.6367C26.7313 23.5879 26.975 23.5392 27.2188 23.4742C27.2231 23.4742 27.2272 23.4725 27.2303 23.4694C27.2333 23.4664 27.235 23.4622 27.235 23.4579C27.6769 23.3562 28.1071 23.2091 28.5188 23.0192C28.6669 23.3067 28.7918 23.6056 28.8925 23.9129C28.9821 24.1507 29.0527 24.3953 29.1038 24.6442ZM25.9838 20.2242C26.318 20.4348 26.6334 20.6741 26.9263 20.9392C27.304 21.279 27.642 21.6606 27.9338 22.0767C27.4512 22.2722 26.9504 22.4192 26.4388 22.5154C26.3738 22.5317 26.2925 22.5479 26.2275 22.5642C26.094 22.0602 25.9257 21.5661 25.7238 21.0854C25.5054 20.5892 25.2387 20.1156 24.9275 19.6717C25.2973 19.8197 25.6512 20.0049 25.9838 20.2242ZM19.435 19.6554C18.8239 20.5354 18.3829 21.5219 18.135 22.5642C17.5474 22.4535 16.971 22.2903 16.4125 22.0767C17.1685 20.9978 18.2172 20.1579 19.435 19.6554Z" fill="url(#paint3_linear_1217_3415)"/>
</g>
</g>
</g>
<defs>
<linearGradient id="paint0_linear_1217_3415" x1="10.27" y1="10.0054" x2="53.2513" y2="40.466" gradientUnits="userSpaceOnUse">
<stop stop-color="#F58CB8"/>
<stop offset="1" stop-color="#9FE2F0"/>
</linearGradient>
<linearGradient id="paint1_linear_1217_3415" x1="11.4163" y1="16.2668" x2="32.1828" y2="43.2773" gradientUnits="userSpaceOnUse">
<stop stop-color="#E69BC2"/>
<stop offset="1" stop-color="#B0D1E5"/>
</linearGradient>
<linearGradient id="paint2_linear_1217_3415" x1="12.6587" y1="38.1807" x2="12.8441" y2="40.6815" gradientUnits="userSpaceOnUse">
<stop stop-color="#F58CB8"/>
<stop offset="1" stop-color="#9FE2F0"/>
</linearGradient>
<linearGradient id="paint3_linear_1217_3415" x1="13.9425" y1="17.9976" x2="32.1134" y2="32.242" gradientUnits="userSpaceOnUse">
<stop stop-color="#F58CB8"/>
<stop offset="1" stop-color="#9FE2F0"/>
</linearGradient>
</defs>
</svg>
