<svg width="52" height="52" viewBox="0 0 52 52" fill="none" xmlns="http://www.w3.org/2000/svg">
<g id="7490089_travel_passport_and_ticket_adventure_icon 1">
<g id="Vector">
<mask id="path-1-outside-1_1217_3105" maskUnits="userSpaceOnUse" x="9.26999" y="9.00562" width="38" height="42" fill="black">
<rect fill="white" x="9.26999" y="9.00562" width="38" height="42"/>
<path d="M44.3787 13.9032L32.1912 10.1332C31.4435 9.90642 30.6364 9.98405 29.9456 10.3492C29.2548 10.7144 28.7362 11.3376 28.5025 12.0832L28.0475 13.5457H13.2112C12.825 13.5456 12.4424 13.6216 12.0855 13.7694C11.7286 13.9171 11.4043 14.1338 11.1312 14.4069C10.858 14.6801 10.6414 15.0044 10.4936 15.3613C10.3459 15.7182 10.2699 16.1007 10.27 16.487V41.6095C10.2691 42.3913 10.5782 43.1416 11.1295 43.696C11.6808 44.2503 12.4294 44.5636 13.2112 44.567H19.3537C19.5275 44.9237 19.773 45.2406 20.075 45.4979C20.3771 45.7551 20.729 45.9472 21.1087 46.062L33.605 49.9132C33.8885 50.0041 34.1849 50.048 34.4825 50.0432C34.9691 50.0441 35.4486 49.927 35.88 49.702C36.2241 49.5166 36.5278 49.2645 36.7734 48.9604C37.0189 48.6563 37.2013 48.3062 37.31 47.9307L39.845 39.432V39.3995L46.345 17.5595C46.5631 16.814 46.4791 16.0125 46.1112 15.3284C45.7433 14.6443 45.121 14.1324 44.3787 13.9032ZM13.2112 43.4457C12.97 43.446 12.7312 43.3987 12.5083 43.3065C12.2854 43.2143 12.0829 43.0791 11.9123 42.9086C11.7417 42.738 11.6065 42.5355 11.5143 42.3126C11.4221 42.0897 11.3748 41.8509 11.375 41.6097V16.4872C11.3773 16.0009 11.5714 15.5351 11.9153 15.1912C12.2592 14.8474 12.7249 14.6532 13.2112 14.6509H30.7125C31.1955 14.6507 31.6594 14.8392 32.0055 15.1761C32.3515 15.5131 32.5523 15.9718 32.565 16.4547L32.6462 21.1509L32.6625 22.3209L32.695 24.1572L32.76 28.3009L32.7762 29.6984L32.7925 30.8034L32.9062 37.2709V37.4009L32.9712 41.5772C32.9762 41.8225 32.9318 42.0664 32.8406 42.2943C32.7495 42.5222 32.6135 42.7295 32.4407 42.9038C32.2679 43.0781 32.0618 43.2159 31.8347 43.309C31.6076 43.4021 31.3642 43.4487 31.1187 43.4459L13.2112 43.4457ZM36.2537 47.622C36.1048 48.0942 35.7786 48.4903 35.3437 48.727C35.0784 48.8671 34.7826 48.9397 34.4825 48.9382C34.3009 48.935 34.1206 48.9077 33.9462 48.857L21.4337 45.0057C21.1578 44.9215 20.9067 44.7709 20.7025 44.567H31.1187C31.5125 44.565 31.9019 44.485 32.2645 44.3316C32.6271 44.1782 32.9557 43.9544 33.2312 43.6732C33.5057 43.3952 33.7218 43.0651 33.867 42.7023C34.0121 42.3395 34.0832 41.9514 34.0762 41.5607L34.0275 38.0995L38.6262 39.6107L36.2537 47.622ZM36.335 21.9795L40.56 27.6507L40.4137 28.2195L36.14 24.8232C36.0668 24.7679 35.9817 24.7302 35.8915 24.7133C35.8012 24.6964 35.7083 24.7007 35.62 24.7257C35.535 24.7598 35.4587 24.8125 35.3968 24.88C35.3349 24.9475 35.289 25.0281 35.2625 25.1157L34.4012 28.2682C34.3633 28.3978 34.3749 28.5368 34.4337 28.6582L35.5712 31.0957L35.5225 31.2095L33.8975 30.072L33.8162 25.2457L33.9462 24.7582C33.9733 24.6691 33.9771 24.5744 33.9572 24.4834C33.9373 24.3924 33.8943 24.308 33.8325 24.2382L33.8 24.2057L33.7512 21.8657L34.6125 21.5082C34.6904 21.4775 34.7602 21.4293 34.8165 21.3673C34.8729 21.3053 34.9143 21.2312 34.9375 21.1507L35.7337 18.2582C36.0262 17.1532 36.5787 16.9095 36.8225 16.8445C37.0012 17.0232 37.3425 17.5107 37.05 18.6157L36.2537 21.5082C36.23 21.5877 36.225 21.6716 36.2391 21.7534C36.2532 21.8352 36.286 21.9125 36.335 21.9795ZM45.2725 17.2345L38.9512 38.5382L33.995 36.9457L33.9137 31.4207L35.5387 32.5745C35.6351 32.6384 35.7482 32.6723 35.8637 32.672C35.9251 32.6758 35.9864 32.6646 36.0425 32.6395C36.126 32.6105 36.2009 32.5612 36.2605 32.4959C36.3201 32.4306 36.3625 32.3515 36.3837 32.2657L36.6925 31.1932C36.7223 31.063 36.7109 30.9268 36.66 30.8032L35.5225 28.3657L36.1075 26.2207L40.3812 29.6007C40.4545 29.6561 40.5396 29.6937 40.6298 29.7106C40.72 29.7275 40.8129 29.7233 40.9012 29.6982C40.9869 29.67 41.0643 29.6212 41.1267 29.556C41.189 29.4908 41.2344 29.4113 41.2587 29.3245L41.6975 27.6832C41.7213 27.6038 41.7263 27.5198 41.7122 27.4381C41.6981 27.3563 41.6653 27.2789 41.6162 27.212L37.3912 21.5407L38.1062 18.9082C38.7562 16.5682 37.2775 15.8045 37.2125 15.7882C37.1543 15.7499 37.087 15.7275 37.0175 15.7232C36.9362 15.7232 35.3112 15.6095 34.6612 17.9657L33.9462 20.5982L33.735 20.6795L33.67 16.4382C33.6509 15.6659 33.3312 14.9314 32.7789 14.3912C32.2265 13.851 31.4851 13.5476 30.7125 13.5457H29.2012L29.5587 12.4082C29.6306 12.1754 29.748 11.9593 29.9042 11.7723C30.0605 11.5854 30.2524 11.4315 30.4687 11.3195C30.7355 11.1831 31.0304 11.1108 31.33 11.1082C31.5115 11.1115 31.6919 11.1389 31.8662 11.1895L44.0537 14.9595C44.5159 15.1012 44.9034 15.4199 45.1317 15.8461C45.36 16.2722 45.4106 16.7712 45.2725 17.2345Z"/>
</mask>
<path d="M44.3787 13.9032L32.1912 10.1332C31.4435 9.90642 30.6364 9.98405 29.9456 10.3492C29.2548 10.7144 28.7362 11.3376 28.5025 12.0832L28.0475 13.5457H13.2112C12.825 13.5456 12.4424 13.6216 12.0855 13.7694C11.7286 13.9171 11.4043 14.1338 11.1312 14.4069C10.858 14.6801 10.6414 15.0044 10.4936 15.3613C10.3459 15.7182 10.2699 16.1007 10.27 16.487V41.6095C10.2691 42.3913 10.5782 43.1416 11.1295 43.696C11.6808 44.2503 12.4294 44.5636 13.2112 44.567H19.3537C19.5275 44.9237 19.773 45.2406 20.075 45.4979C20.3771 45.7551 20.729 45.9472 21.1087 46.062L33.605 49.9132C33.8885 50.0041 34.1849 50.048 34.4825 50.0432C34.9691 50.0441 35.4486 49.927 35.88 49.702C36.2241 49.5166 36.5278 49.2645 36.7734 48.9604C37.0189 48.6563 37.2013 48.3062 37.31 47.9307L39.845 39.432V39.3995L46.345 17.5595C46.5631 16.814 46.4791 16.0125 46.1112 15.3284C45.7433 14.6443 45.121 14.1324 44.3787 13.9032ZM13.2112 43.4457C12.97 43.446 12.7312 43.3987 12.5083 43.3065C12.2854 43.2143 12.0829 43.0791 11.9123 42.9086C11.7417 42.738 11.6065 42.5355 11.5143 42.3126C11.4221 42.0897 11.3748 41.8509 11.375 41.6097V16.4872C11.3773 16.0009 11.5714 15.5351 11.9153 15.1912C12.2592 14.8474 12.7249 14.6532 13.2112 14.6509H30.7125C31.1955 14.6507 31.6594 14.8392 32.0055 15.1761C32.3515 15.5131 32.5523 15.9718 32.565 16.4547L32.6462 21.1509L32.6625 22.3209L32.695 24.1572L32.76 28.3009L32.7762 29.6984L32.7925 30.8034L32.9062 37.2709V37.4009L32.9712 41.5772C32.9762 41.8225 32.9318 42.0664 32.8406 42.2943C32.7495 42.5222 32.6135 42.7295 32.4407 42.9038C32.2679 43.0781 32.0618 43.2159 31.8347 43.309C31.6076 43.4021 31.3642 43.4487 31.1187 43.4459L13.2112 43.4457ZM36.2537 47.622C36.1048 48.0942 35.7786 48.4903 35.3437 48.727C35.0784 48.8671 34.7826 48.9397 34.4825 48.9382C34.3009 48.935 34.1206 48.9077 33.9462 48.857L21.4337 45.0057C21.1578 44.9215 20.9067 44.7709 20.7025 44.567H31.1187C31.5125 44.565 31.9019 44.485 32.2645 44.3316C32.6271 44.1782 32.9557 43.9544 33.2312 43.6732C33.5057 43.3952 33.7218 43.0651 33.867 42.7023C34.0121 42.3395 34.0832 41.9514 34.0762 41.5607L34.0275 38.0995L38.6262 39.6107L36.2537 47.622ZM36.335 21.9795L40.56 27.6507L40.4137 28.2195L36.14 24.8232C36.0668 24.7679 35.9817 24.7302 35.8915 24.7133C35.8012 24.6964 35.7083 24.7007 35.62 24.7257C35.535 24.7598 35.4587 24.8125 35.3968 24.88C35.3349 24.9475 35.289 25.0281 35.2625 25.1157L34.4012 28.2682C34.3633 28.3978 34.3749 28.5368 34.4337 28.6582L35.5712 31.0957L35.5225 31.2095L33.8975 30.072L33.8162 25.2457L33.9462 24.7582C33.9733 24.6691 33.9771 24.5744 33.9572 24.4834C33.9373 24.3924 33.8943 24.308 33.8325 24.2382L33.8 24.2057L33.7512 21.8657L34.6125 21.5082C34.6904 21.4775 34.7602 21.4293 34.8165 21.3673C34.8729 21.3053 34.9143 21.2312 34.9375 21.1507L35.7337 18.2582C36.0262 17.1532 36.5787 16.9095 36.8225 16.8445C37.0012 17.0232 37.3425 17.5107 37.05 18.6157L36.2537 21.5082C36.23 21.5877 36.225 21.6716 36.2391 21.7534C36.2532 21.8352 36.286 21.9125 36.335 21.9795ZM45.2725 17.2345L38.9512 38.5382L33.995 36.9457L33.9137 31.4207L35.5387 32.5745C35.6351 32.6384 35.7482 32.6723 35.8637 32.672C35.9251 32.6758 35.9864 32.6646 36.0425 32.6395C36.126 32.6105 36.2009 32.5612 36.2605 32.4959C36.3201 32.4306 36.3625 32.3515 36.3837 32.2657L36.6925 31.1932C36.7223 31.063 36.7109 30.9268 36.66 30.8032L35.5225 28.3657L36.1075 26.2207L40.3812 29.6007C40.4545 29.6561 40.5396 29.6937 40.6298 29.7106C40.72 29.7275 40.8129 29.7233 40.9012 29.6982C40.9869 29.67 41.0643 29.6212 41.1267 29.556C41.189 29.4908 41.2344 29.4113 41.2587 29.3245L41.6975 27.6832C41.7213 27.6038 41.7263 27.5198 41.7122 27.4381C41.6981 27.3563 41.6653 27.2789 41.6162 27.212L37.3912 21.5407L38.1062 18.9082C38.7562 16.5682 37.2775 15.8045 37.2125 15.7882C37.1543 15.7499 37.087 15.7275 37.0175 15.7232C36.9362 15.7232 35.3112 15.6095 34.6612 17.9657L33.9462 20.5982L33.735 20.6795L33.67 16.4382C33.6509 15.6659 33.3312 14.9314 32.7789 14.3912C32.2265 13.851 31.4851 13.5476 30.7125 13.5457H29.2012L29.5587 12.4082C29.6306 12.1754 29.748 11.9593 29.9042 11.7723C30.0605 11.5854 30.2524 11.4315 30.4687 11.3195C30.7355 11.1831 31.0304 11.1108 31.33 11.1082C31.5115 11.1115 31.6919 11.1389 31.8662 11.1895L44.0537 14.9595C44.5159 15.1012 44.9034 15.4199 45.1317 15.8461C45.36 16.2722 45.4106 16.7712 45.2725 17.2345Z" fill="#191919"/>
<path d="M44.3787 13.9032L32.1912 10.1332C31.4435 9.90642 30.6364 9.98405 29.9456 10.3492C29.2548 10.7144 28.7362 11.3376 28.5025 12.0832L28.0475 13.5457H13.2112C12.825 13.5456 12.4424 13.6216 12.0855 13.7694C11.7286 13.9171 11.4043 14.1338 11.1312 14.4069C10.858 14.6801 10.6414 15.0044 10.4936 15.3613C10.3459 15.7182 10.2699 16.1007 10.27 16.487V41.6095C10.2691 42.3913 10.5782 43.1416 11.1295 43.696C11.6808 44.2503 12.4294 44.5636 13.2112 44.567H19.3537C19.5275 44.9237 19.773 45.2406 20.075 45.4979C20.3771 45.7551 20.729 45.9472 21.1087 46.062L33.605 49.9132C33.8885 50.0041 34.1849 50.048 34.4825 50.0432C34.9691 50.0441 35.4486 49.927 35.88 49.702C36.2241 49.5166 36.5278 49.2645 36.7734 48.9604C37.0189 48.6563 37.2013 48.3062 37.31 47.9307L39.845 39.432V39.3995L46.345 17.5595C46.5631 16.814 46.4791 16.0125 46.1112 15.3284C45.7433 14.6443 45.121 14.1324 44.3787 13.9032ZM13.2112 43.4457C12.97 43.446 12.7312 43.3987 12.5083 43.3065C12.2854 43.2143 12.0829 43.0791 11.9123 42.9086C11.7417 42.738 11.6065 42.5355 11.5143 42.3126C11.4221 42.0897 11.3748 41.8509 11.375 41.6097V16.4872C11.3773 16.0009 11.5714 15.5351 11.9153 15.1912C12.2592 14.8474 12.7249 14.6532 13.2112 14.6509H30.7125C31.1955 14.6507 31.6594 14.8392 32.0055 15.1761C32.3515 15.5131 32.5523 15.9718 32.565 16.4547L32.6462 21.1509L32.6625 22.3209L32.695 24.1572L32.76 28.3009L32.7762 29.6984L32.7925 30.8034L32.9062 37.2709V37.4009L32.9712 41.5772C32.9762 41.8225 32.9318 42.0664 32.8406 42.2943C32.7495 42.5222 32.6135 42.7295 32.4407 42.9038C32.2679 43.0781 32.0618 43.2159 31.8347 43.309C31.6076 43.4021 31.3642 43.4487 31.1187 43.4459L13.2112 43.4457ZM36.2537 47.622C36.1048 48.0942 35.7786 48.4903 35.3437 48.727C35.0784 48.8671 34.7826 48.9397 34.4825 48.9382C34.3009 48.935 34.1206 48.9077 33.9462 48.857L21.4337 45.0057C21.1578 44.9215 20.9067 44.7709 20.7025 44.567H31.1187C31.5125 44.565 31.9019 44.485 32.2645 44.3316C32.6271 44.1782 32.9557 43.9544 33.2312 43.6732C33.5057 43.3952 33.7218 43.0651 33.867 42.7023C34.0121 42.3395 34.0832 41.9514 34.0762 41.5607L34.0275 38.0995L38.6262 39.6107L36.2537 47.622ZM36.335 21.9795L40.56 27.6507L40.4137 28.2195L36.14 24.8232C36.0668 24.7679 35.9817 24.7302 35.8915 24.7133C35.8012 24.6964 35.7083 24.7007 35.62 24.7257C35.535 24.7598 35.4587 24.8125 35.3968 24.88C35.3349 24.9475 35.289 25.0281 35.2625 25.1157L34.4012 28.2682C34.3633 28.3978 34.3749 28.5368 34.4337 28.6582L35.5712 31.0957L35.5225 31.2095L33.8975 30.072L33.8162 25.2457L33.9462 24.7582C33.9733 24.6691 33.9771 24.5744 33.9572 24.4834C33.9373 24.3924 33.8943 24.308 33.8325 24.2382L33.8 24.2057L33.7512 21.8657L34.6125 21.5082C34.6904 21.4775 34.7602 21.4293 34.8165 21.3673C34.8729 21.3053 34.9143 21.2312 34.9375 21.1507L35.7337 18.2582C36.0262 17.1532 36.5787 16.9095 36.8225 16.8445C37.0012 17.0232 37.3425 17.5107 37.05 18.6157L36.2537 21.5082C36.23 21.5877 36.225 21.6716 36.2391 21.7534C36.2532 21.8352 36.286 21.9125 36.335 21.9795ZM45.2725 17.2345L38.9512 38.5382L33.995 36.9457L33.9137 31.4207L35.5387 32.5745C35.6351 32.6384 35.7482 32.6723 35.8637 32.672C35.9251 32.6758 35.9864 32.6646 36.0425 32.6395C36.126 32.6105 36.2009 32.5612 36.2605 32.4959C36.3201 32.4306 36.3625 32.3515 36.3837 32.2657L36.6925 31.1932C36.7223 31.063 36.7109 30.9268 36.66 30.8032L35.5225 28.3657L36.1075 26.2207L40.3812 29.6007C40.4545 29.6561 40.5396 29.6937 40.6298 29.7106C40.72 29.7275 40.8129 29.7233 40.9012 29.6982C40.9869 29.67 41.0643 29.6212 41.1267 29.556C41.189 29.4908 41.2344 29.4113 41.2587 29.3245L41.6975 27.6832C41.7213 27.6038 41.7263 27.5198 41.7122 27.4381C41.6981 27.3563 41.6653 27.2789 41.6162 27.212L37.3912 21.5407L38.1062 18.9082C38.7562 16.5682 37.2775 15.8045 37.2125 15.7882C37.1543 15.7499 37.087 15.7275 37.0175 15.7232C36.9362 15.7232 35.3112 15.6095 34.6612 17.9657L33.9462 20.5982L33.735 20.6795L33.67 16.4382C33.6509 15.6659 33.3312 14.9314 32.7789 14.3912C32.2265 13.851 31.4851 13.5476 30.7125 13.5457H29.2012L29.5587 12.4082C29.6306 12.1754 29.748 11.9593 29.9042 11.7723C30.0605 11.5854 30.2524 11.4315 30.4687 11.3195C30.7355 11.1831 31.0304 11.1108 31.33 11.1082C31.5115 11.1115 31.6919 11.1389 31.8662 11.1895L44.0537 14.9595C44.5159 15.1012 44.9034 15.4199 45.1317 15.8461C45.36 16.2722 45.4106 16.7712 45.2725 17.2345Z" stroke="#191919" stroke-width="0.4" mask="url(#path-1-outside-1_1217_3105)"/>
</g>
<path id="Vector_2" d="M31.1187 39.2854C31.1915 39.286 31.2636 39.2722 31.3309 39.2446C31.3982 39.2171 31.4594 39.1764 31.5108 39.125C31.5623 39.0736 31.6029 39.0124 31.6305 38.9451C31.658 38.8778 31.6719 38.8056 31.6712 38.7329C31.6698 38.5868 31.6111 38.4472 31.5078 38.3439C31.4045 38.2406 31.2648 38.1819 31.1187 38.1804H13.2112C13.0652 38.1819 12.9255 38.2406 12.8222 38.3439C12.719 38.4472 12.6603 38.5869 12.6587 38.7329C12.6581 38.8056 12.672 38.8778 12.6995 38.9451C12.7271 39.0124 12.7677 39.0736 12.8192 39.125C12.8706 39.1764 12.9318 39.2171 12.9991 39.2446C13.0664 39.2722 13.1385 39.286 13.2112 39.2854H31.1187Z" fill="#191919"/>
<path id="Vector_3" d="M15.1775 30.5269C15.8562 31.6463 16.7963 32.5844 17.917 33.2608C19.0378 33.9372 20.3058 34.3318 21.6125 34.4107C21.7039 34.4242 21.7964 34.4296 21.8888 34.4269C21.9317 34.4351 21.9758 34.4351 22.0188 34.4269C22.0663 34.4403 22.1157 34.4458 22.165 34.4432C22.2625 34.4432 22.3763 34.4269 22.4738 34.4269C22.5715 34.4296 22.6694 34.4242 22.7663 34.4107C24.0641 34.3225 25.3217 33.9237 26.4331 33.2478C27.5446 32.5719 28.4772 31.6387 29.1525 30.5269C29.1938 30.491 29.2271 30.4467 29.25 30.3969C29.25 30.3807 29.2663 30.3807 29.2663 30.3644C29.315 30.2832 29.3475 30.2182 29.3963 30.1369C29.3963 30.1207 29.4125 30.1207 29.4125 30.1044C29.6188 29.7187 29.7927 29.3164 29.9325 28.9019C30.2332 28.04 30.387 27.1336 30.3875 26.2207C30.3875 26.0094 30.3713 25.7982 30.355 25.5869C30.3315 25.2211 30.2826 24.8573 30.2088 24.4982C30.1305 24.15 30.0273 23.8078 29.9 23.4744C29.7827 23.1292 29.6416 22.7925 29.4775 22.4669C29.4059 22.3208 29.3244 22.1796 29.2338 22.0444V22.0282C29.2106 21.9876 29.1834 21.9495 29.1525 21.9144C28.6602 21.1 28.0275 20.3793 27.2838 19.7857C26.9838 19.5414 26.663 19.3239 26.325 19.1357C24.4523 18.0307 22.2174 17.7147 20.1118 18.2571C18.0061 18.7995 16.202 20.1559 15.0963 22.0282V22.0444C14.3412 23.3066 13.9425 24.7499 13.9425 26.2207C13.9425 27.6915 14.3412 29.1347 15.0963 30.3969C15.1135 30.4457 15.1412 30.4901 15.1775 30.5269ZM15.8275 23.0194C16.4822 23.3083 17.1698 23.5157 17.875 23.6369C17.7363 24.4912 17.6656 25.3552 17.6638 26.2207C17.6649 27.0808 17.7356 27.9394 17.875 28.7882C17.1741 28.927 16.4883 29.1338 15.8275 29.4057C15.3254 28.4162 15.0637 27.3222 15.0637 26.2126C15.0637 25.1029 15.3254 24.0089 15.8275 23.0194ZM18.7688 26.2207C18.7629 25.4195 18.8336 24.6196 18.98 23.8319C19.8516 23.9628 20.7312 24.0334 21.6125 24.0432V28.3982C20.7313 28.41 19.8518 28.4805 18.98 28.6094C18.8336 27.8217 18.7629 27.0219 18.7688 26.2207ZM25.3663 23.8319C25.4653 24.3471 25.5304 24.8682 25.5613 25.3919C25.5613 25.6682 25.5775 25.9444 25.5775 26.2207C25.5834 27.0165 25.5127 27.811 25.3663 28.5932C25.1225 28.5607 24.8625 28.5282 24.6025 28.4957C24.2288 28.4632 23.855 28.4307 23.465 28.4144C23.2213 28.3982 22.9613 28.3982 22.7175 28.3982V24.0432C23.4488 24.0269 24.18 23.9782 24.8625 23.8969C25.0315 23.8843 25.1996 23.8627 25.3663 23.8319ZM21.6125 29.5032V33.2244C20.9732 32.852 20.4263 32.34 20.0127 31.7266C19.5991 31.1131 19.3294 30.4142 19.2238 29.6819C20.0153 29.5707 20.8132 29.5111 21.6125 29.5032ZM23.205 32.9807C23.0531 33.0859 22.8895 33.1732 22.7175 33.2407V29.5032H23.1238C23.5138 29.5194 23.8875 29.5519 24.2613 29.5844C24.5538 29.6169 24.8463 29.6494 25.1225 29.6819C24.8748 30.9667 24.1988 32.1296 23.205 32.9807ZM22.7175 22.9219V19.2007C23.3596 19.5756 23.9091 20.0901 24.3254 20.7061C24.7417 21.3221 25.0141 22.0239 25.1225 22.7594C24.3251 22.8643 23.5218 22.9185 22.7175 22.9219ZM21.6125 19.2169V22.9219C20.8136 22.9191 20.0157 22.8648 19.2238 22.7594C19.3295 22.0271 19.5992 21.3282 20.0128 20.7147C20.4265 20.1013 20.9733 19.5895 21.6125 19.2169ZM16.3963 30.3644C16.9558 30.15 17.5319 29.9815 18.1188 29.8607C18.3759 30.9127 18.8219 31.9092 19.435 32.8019C18.2175 32.2838 17.1661 31.4406 16.3963 30.3644ZM24.9275 32.7857C25.5257 31.8985 25.9655 30.9143 26.2275 29.8769C26.8098 29.9875 27.3809 30.1506 27.9338 30.3644C27.1748 31.4339 26.1342 32.2721 24.9275 32.7857ZM29.1038 24.6444C29.1907 25.0072 29.2451 25.377 29.2663 25.7494C29.2799 25.9061 29.2853 26.0634 29.2825 26.2207C29.2824 27.3277 29.0207 28.419 28.5188 29.4057C27.8588 29.1315 27.1728 28.9246 26.4713 28.7882C26.6108 27.9394 26.6815 27.0808 26.6825 26.2207C26.6825 26.0419 26.6825 25.8632 26.6663 25.6844V25.2944C26.6175 24.7256 26.5525 24.1731 26.4713 23.6369C26.7313 23.5882 26.975 23.5394 27.2188 23.4744C27.2231 23.4744 27.2272 23.4727 27.2303 23.4697C27.2333 23.4666 27.235 23.4625 27.235 23.4582C27.6769 23.3564 28.1071 23.2094 28.5188 23.0194C28.6669 23.307 28.7918 23.6058 28.8925 23.9132C28.9821 24.1509 29.0527 24.3955 29.1038 24.6444ZM25.9838 20.2244C26.318 20.4351 26.6334 20.6743 26.9263 20.9394C27.304 21.2793 27.642 21.6609 27.9338 22.0769C27.4512 22.2724 26.9504 22.4194 26.4388 22.5157C26.3738 22.5319 26.2925 22.5482 26.2275 22.5644C26.094 22.0605 25.9257 21.5664 25.7238 21.0857C25.5054 20.5894 25.2387 20.1159 24.9275 19.6719C25.2973 19.82 25.6512 20.0052 25.9838 20.2244ZM19.435 19.6557C18.8239 20.5356 18.3829 21.5222 18.135 22.5644C17.5474 22.4537 16.971 22.2906 16.4125 22.0769C17.1685 20.998 18.2172 20.1581 19.435 19.6557Z" fill="#191919"/>
</g>
</svg>
