<svg width="36" height="36" viewBox="0 0 36 36" fill="none" xmlns="http://www.w3.org/2000/svg">
<g id="7830672_human_resources_search_employees_icon 1" clip-path="url(#clip0_1217_3497)">
<g id="Vector">
<path d="M35.25 17.2499L30.378 12.3779M28.5 35.2499H33.75V33.9704C33.75 29.4359 30.4245 28.7039 27.288 27.5429C26.238 27.1574 26.4165 24.4349 26.8785 23.9279C27.6137 23.131 28.1721 22.1877 28.5172 21.1599C28.8623 20.1321 28.9863 19.0429 28.881 17.9639M0.75 35.25C0.77012 33.5362 1.12688 31.8432 1.8 30.267C2.535 28.7955 5.6085 27.7755 9.4665 26.3475C10.509 25.9605 10.338 23.2365 9.876 22.728C9.14 21.931 8.58095 20.9873 8.23556 19.9589C7.89018 18.9305 7.76628 17.8407 7.872 16.761C7.8059 16.0738 7.88194 15.3804 8.09538 14.7239C8.30883 14.0673 8.6551 13.4617 9.11267 12.9448C9.57023 12.4279 10.1293 12.0106 10.755 11.7191C11.3808 11.4275 12.0599 11.2678 12.75 11.25C13.4406 11.267 14.1204 11.4261 14.7468 11.7173C15.3733 12.0085 15.9331 12.4256 16.3913 12.9427C16.8495 13.4597 17.1963 14.0655 17.4101 14.7225C17.6239 15.3794 17.7001 16.0733 17.634 16.761C17.7397 17.8407 17.6158 18.9305 17.2704 19.9589C16.9251 20.9873 16.366 21.931 15.63 22.728C15.168 23.2365 14.997 25.9605 16.0395 26.3475C19.8975 27.7755 22.971 28.7955 23.706 30.267C24.3791 31.8432 24.7359 33.5362 24.756 35.25H0.75ZM32.337 7.5435C32.337 11.2954 29.2954 14.337 25.5435 14.337C21.7916 14.337 18.75 11.2954 18.75 7.5435C18.75 3.79155 21.7916 0.75 25.5435 0.75C29.2954 0.75 32.337 3.79155 32.337 7.5435Z" stroke="#191919" stroke-width="2" stroke-linecap="round" stroke-linejoin="round"/>
<path d="M35.25 17.2499L30.378 12.3779M28.5 35.2499H33.75V33.9704C33.75 29.4359 30.4245 28.7039 27.288 27.5429C26.238 27.1574 26.4165 24.4349 26.8785 23.9279C27.6137 23.131 28.1721 22.1877 28.5172 21.1599C28.8623 20.1321 28.9863 19.0429 28.881 17.9639M0.75 35.25C0.77012 33.5362 1.12688 31.8432 1.8 30.267C2.535 28.7955 5.6085 27.7755 9.4665 26.3475C10.509 25.9605 10.338 23.2365 9.876 22.728C9.14 21.931 8.58095 20.9873 8.23556 19.9589C7.89018 18.9305 7.76628 17.8407 7.872 16.761C7.8059 16.0738 7.88194 15.3804 8.09538 14.7239C8.30883 14.0673 8.6551 13.4617 9.11267 12.9448C9.57023 12.4279 10.1293 12.0106 10.755 11.7191C11.3808 11.4275 12.0599 11.2678 12.75 11.25C13.4406 11.267 14.1204 11.4261 14.7468 11.7173C15.3733 12.0085 15.9331 12.4256 16.3913 12.9427C16.8495 13.4597 17.1963 14.0655 17.4101 14.7225C17.6239 15.3794 17.7001 16.0733 17.634 16.761C17.7397 17.8407 17.6158 18.9305 17.2704 19.9589C16.9251 20.9873 16.366 21.931 15.63 22.728C15.168 23.2365 14.997 25.9605 16.0395 26.3475C19.8975 27.7755 22.971 28.7955 23.706 30.267C24.3791 31.8432 24.7359 33.5362 24.756 35.25H0.75ZM32.337 7.5435C32.337 11.2954 29.2954 14.337 25.5435 14.337C21.7916 14.337 18.75 11.2954 18.75 7.5435C18.75 3.79155 21.7916 0.75 25.5435 0.75C29.2954 0.75 32.337 3.79155 32.337 7.5435Z" stroke="url(#paint0_linear_1217_3497)" stroke-width="2" stroke-linecap="round" stroke-linejoin="round"/>
</g>
</g>
<defs>
<linearGradient id="paint0_linear_1217_3497" x1="4.91519" y1="10.1104" x2="37.8295" y2="12.2158" gradientUnits="userSpaceOnUse">
<stop stop-color="#E69BC2"/>
<stop offset="1" stop-color="#B0D1E5"/>
</linearGradient>
<clipPath id="clip0_1217_3497">
<rect width="36" height="36" fill="white"/>
</clipPath>
</defs>
</svg>
