<svg width="46" height="46" viewBox="0 0 46 46" fill="none" xmlns="http://www.w3.org/2000/svg">
<g id="7898409_promotion_business_finance_office_marketing_icon 1">
<g id="g2869">
<path id="path1597" d="M36.2461 18.1172C36.2461 18.7562 36.2461 19.3953 36.2461 20.0343C38.5755 20.0343 40.905 20.0343 43.2345 20.0343C43.2345 19.3953 43.2345 18.7562 43.2345 18.1172C40.905 18.1172 38.5755 18.1172 36.2461 18.1172Z" fill="#191919"/>
<path id="path1601" d="M37.0585 22.5898C36.7695 23.1602 36.4804 23.7306 36.1914 24.301C38.271 25.3502 40.3439 26.4126 42.4235 27.4619C42.7126 26.8915 43.0016 26.3211 43.2906 25.7507C41.211 24.7015 39.1381 23.6391 37.0585 22.5898Z" fill="#191919"/>
<path id="path1605" d="M42.4235 10.6914C40.3439 11.7406 38.271 12.8031 36.1914 13.8523C36.4804 14.4227 36.7695 14.9931 37.0585 15.5634C39.1343 14.5054 41.2148 13.4566 43.2906 12.3986C43.0016 11.8295 42.7126 11.2605 42.4235 10.6914Z" fill="#191919"/>
<path id="path1609" d="M26.3791 9.7915C20.7045 11.6312 15.0286 13.4668 9.35368 15.3057C9.24575 15.2882 9.14776 15.242 9.03548 15.242H4.83154C3.67315 15.242 2.70898 16.2062 2.70898 17.3646V24.874C2.70898 26.0324 3.67315 26.9966 4.83154 26.9966H5.50911L10.0911 39.833H16.8556L12.7715 27.6442C17.3062 28.5847 21.8408 29.5254 26.3753 30.4668V30.508C26.3753 32.5486 28.1077 34.1766 30.1974 34.1766C32.2871 34.1766 34.0195 32.5486 34.0195 30.508V9.83643C34.0195 7.79575 32.2871 6.16406 30.2052 6.16406C28.1233 6.16406 26.4049 7.77234 26.3791 9.7915ZM30.1974 8.08073C31.3036 8.08073 32.1029 8.87166 32.1029 9.83643V30.508C32.1029 31.4727 31.3036 32.2599 30.1974 32.2599C29.0913 32.2599 28.292 31.4727 28.292 30.508V9.83643C28.292 8.87166 29.0913 8.08073 30.1974 8.08073ZM26.3753 11.8055V28.509C21.3104 27.4581 16.2455 26.4073 11.1805 25.3569V16.7282C16.2454 15.0873 21.3106 13.4471 26.3753 11.8055ZM4.83154 17.1587H9.03548C9.16521 17.1587 9.24137 17.2349 9.24137 17.3646V20.161H4.62565V17.3646C4.62565 17.2349 4.70182 17.1587 4.83154 17.1587ZM4.62565 22.0776H9.24137V24.874C9.24137 25.0037 9.16521 25.0799 9.03548 25.0799H4.83154C4.70182 25.0799 4.62565 25.0037 4.62565 24.874V22.0776ZM9.34245 26.9329C9.76035 27.0196 10.1786 27.1046 10.5965 27.1912L14.1903 37.9163H11.4425L7.54183 26.9966H9.03548C9.14396 26.9966 9.23801 26.9492 9.34245 26.9329Z" fill="#191919"/>
</g>
</g>
</svg>
